<svg xmlns="http://www.w3.org/2000/svg" viewBox="0 0 490 128" data-di-res-id="1c1e3131-f412b683" data-di-rand="1746623686404"><defs><linearGradient id="svg-def-36-ps_plus_light_theme-a" x1="14.678%" x2="85.354%" y1="23.376%" y2="76.679%"><stop offset="3%" stop-color="#FFE842"></stop><stop offset="100%" stop-color="#FDC100"></stop></linearGradient><linearGradient id="svg-def-36-ps_plus_light_theme-b" x1="12.541%" x2="76.015%" y1="22.777%" y2="84.663%"><stop offset="0%" stop-color="#C58821"></stop><stop offset="100%" stop-color="#9B6C1B"></stop></linearGradient></defs><g><rect width="490" height="128" fill="transparent"></rect><path fill-rule="nonzero" d="M162.692789 57.2626028C162.692789 60.8019508 161.736027 63.7592132 159.922864 65.8065488 158.460344 67.5045341 156.342683 68.4976441 154.102008 68.5363295L147.960002 68.5363295C147.929132 68.5365717 147.899661 68.5234758 147.879151 68.5004029 147.858642 68.4773299 147.849092 68.4465263 147.852951 68.415898L147.852951 64.6959027C147.851102 64.6663708 147.861559 64.6373906 147.881838 64.6158434 147.902118 64.5942962 147.930412 64.582104 147.960002 64.5821618L152.248701 64.5821618C154.844669 64.5821618 156.263085 61.9594313 156.263085 57.2224589 156.263085 52.4854865 154.837979 49.862756 152.248701 49.862756L145.123171 49.862756C145.123171 49.862756 145.089718 49.862756 145.089718 49.9162811L145.089718 81.9242982C145.086392 81.9856854 145.037364 82.0347136 144.975977 82.0380392L138.760373 82.0380392C138.696388 82.0380392 138.643496 81.9881843 138.639942 81.9242982L138.639942 46.0424011C138.641665 46.0122161 138.655335 45.9839593 138.677932 45.9638728 138.700529 45.9437863 138.730194 45.9335233 138.760373 45.9351427L154.108699 45.9351427C159.340779 45.9420415 162.692789 50.3913165 162.692789 57.2626028zM172.869251 45.9351427L166.640266 45.9351427C166.610087 45.9335233 166.580422 45.9437863 166.557825 45.9638728 166.535228 45.9839593 166.521558 46.0122161 166.519834 46.0424011L166.519834 81.9510607C166.523389 82.0149469 166.576281 82.0648017 166.640266 82.0648017L172.869251 82.0648017C172.930638 82.0614762 172.979666 82.0124479 172.982992 81.9510607L172.982992 46.0424011C172.979445 45.9822108 172.929545 45.9351427 172.869251 45.9351427zM199.906123 54.5662752L188.819734 54.5662752C178.877445 54.5662752 177.606223 61.8657624 177.606223 68.2753946L177.606223 73.8219343C177.606223 78.5990506 180.576867 82.0648016 184.658157 82.0648016L190.679732 82.0648016C190.739922 82.0612549 190.786886 82.0113554 190.786782 81.9510607L190.786782 78.2310654C190.786886 78.1707708 190.739922 78.1208712 190.679732 78.1173246L186.357579 78.1173246C185.360674 78.1173246 184.022546 77.6757424 184.022546 74.2501352L184.022546 68.2285601C184.022546 64.2476299 184.390531 61.7051871 185.21348 60.260009 186.110025 58.6609463 187.52175 58.4468459 188.786281 58.4468459L193.509872 58.4468459C193.509872 58.4468459 193.550016 58.4468459 193.550016 58.500371L193.550016 81.9176075C193.553571 81.9814937 193.606463 82.0314472 193.670447 82.0313484L199.886051 82.0313484C199.947438 82.028023 199.996467 81.9789947 199.999792 81.9176075L199.999792 54.6733255C199.995228 54.6210448 199.957335 54.5777385 199.906123 54.5662752L199.906123 54.5662752zM244.840455 60.9892887L241.776142 60.7551163C239.481253 60.5543972 237.761759 59.2831757 237.761759 55.516346 237.761759 51.1205961 239.735497 49.9162811 242.364918 49.9162811L250.86203 49.9162811C250.923417 49.9129557 250.972445 49.8639274 250.975771 49.8025402L250.975771 46.0424011C250.972224 45.9822108 250.922324 45.9353507 250.86203 45.9353507L241.495135 45.9353507C235.707732 45.9353507 231.586299 49.3408862 231.586299 56.1185035L231.586299 56.4128916C231.586299 61.7654028 234.878093 65.6259015 239.782332 66.0005773L242.833263 66.228059C245.161605 66.4020157 246.613474 68.4828044 246.613474 71.640786L246.613474 72.530641C246.613474 74.5378327 246.118367 78.1240152 241.883192 78.1240152L233.031477 78.1240152C232.968659 78.1240152 232.917736 78.1749387 232.917736 78.2377561L232.917736 81.9510607C232.921061 82.0124479 232.97009 82.0614762 233.031477 82.0648016L243.977362 82.0648016C247.322682 82.0648016 253.003034 80.7266738 253.003034 71.5203545 253.003034 68.175035 252.246992 65.5723764 250.714836 63.6722349 249.410161 62.0464097 247.476566 61.1699359 244.840455 60.9892887zM295.689311 54.5662752L284.589541 54.5662752C274.667323 54.5662752 273.382721 61.8657624 273.382721 68.2753946L273.382721 73.8219343C273.382721 78.5990506 276.346674 82.0648016 280.448036 82.0648016L286.469611 82.0648016C286.530998 82.0614762 286.580026 82.0124479 286.583352 81.9510607L286.583352 78.2310654C286.580026 78.1696782 286.530998 78.12065 286.469611 78.1173246L282.147458 78.1173246C281.157243 78.1173246 279.825806 77.6757424 279.825806 74.2501352L279.825806 68.2285601C279.825806 64.2476299 280.193791 61.7051871 281.003359 60.260009 281.899904 58.6609463 283.31832 58.4468459 284.562779 58.4468459L289.313132 58.4468459C289.313132 58.4468459 289.353276 58.4468459 289.359967 58.500371L289.359967 81.9176075C289.363292 81.9789947 289.41232 82.028023 289.473708 82.0313484L295.689311 82.0313484C295.749502 82.0278017 295.796362 81.9779022 295.796362 81.9176075L295.796362 54.6733255C295.796362 54.6142032 295.748433 54.5662752 295.689311 54.5662752zM270.780062 54.5662752L264.042589 54.5662752C264.020418 54.5662752 264.002445 54.5483022 264.002445 54.5261314L264.002445 49.9965688C264.002445 49.9374466 263.954517 49.8895184 263.895395 49.8895184L257.6731 49.8895184C257.612806 49.8895184 257.562906 49.9363785 257.559359 49.9965688L257.559359 73.828625C257.559359 78.5990506 260.530003 82.0648016 264.631365 82.0648016L269.087331 82.0648016C269.148718 82.0614762 269.197746 82.0124479 269.201071 81.9510607L269.201071 78.2377561C269.20117 78.1737712 269.151217 78.1208792 269.087331 78.1173246L266.350859 78.1173246C265.681795 78.1173246 264.002445 78.0704901 263.995754 74.551214L263.995754 58.4936803C263.995754 58.4715095 264.013727 58.4535365 264.035898 58.4535365 266.103306 58.4535365 270.793443 58.4535365 270.793443 58.4535365 270.851386 58.4539387 270.900369 58.4107184 270.907184 58.3531769L270.907184 54.6733255C270.903638 54.6131351 270.853738 54.5661708 270.793443 54.5662752L270.780062 54.5662752zM314.222381 54.5662752L307.531742 54.5662752C307.509572 54.5662752 307.491598 54.5483022 307.491598 54.5261314L307.491598 49.9965688C307.491598 49.9681773 307.48032 49.9409487 307.460244 49.9208728 307.440168 49.900797 307.41294 49.8893104 307.384548 49.8893104L301.155563 49.8893104C301.125384 49.8876909 301.09572 49.897954 301.073122 49.9180404 301.050525 49.9381269 301.036855 49.9663838 301.035132 49.9965688L301.035132 73.828625C301.035132 78.5990506 304.005776 82.0648018 308.100447 82.0648018L312.556412 82.0648018C312.586002 82.0648018 312.614296 82.0526673 312.634576 82.03112 312.654855 82.0095728 312.665312 81.9805926 312.663462 81.9510607L312.663462 78.2377561C312.66529 78.2075772 312.655027 78.1779125 312.634941 78.1553152 312.614854 78.132718 312.586597 78.1190478 312.556412 78.1173246L309.80656 78.1173246C309.104042 78.1173246 307.478217 78.0704901 307.478217 74.551214L307.478217 58.4936803C307.477941 58.4738795 307.492144 58.456835 307.51167 58.4535365 309.565697 58.4535365 314.235763 58.4535365 314.235763 58.4535365 314.293705 58.4539387 314.342688 58.4107184 314.349503 58.3531769L314.349503 54.6733255C314.345957 54.6131351 314.296057 54.5661708 314.235763 54.5662752L314.222381 54.5662752zM324.512584 54.5662751L318.29029 54.5662751C318.229995 54.5662751 318.180096 54.6131351 318.176549 54.6733255L318.176549 81.9510607C318.179874 82.0124479 318.228903 82.0614762 318.29029 82.0648016L324.512584 82.0648016C324.575402 82.0648016 324.626325 82.0138781 324.626325 81.9510607L324.626325 54.6733255C324.626436 54.6167205 324.58246 54.5698129 324.525965 54.5662751L324.512584 54.5662751zM324.512584 45.9353507L318.29029 45.9353507C318.229995 45.9352465 318.180096 45.9822108 318.176549 46.0424011L318.176549 51.2610996C318.180096 51.3212899 318.229995 51.3682542 318.29029 51.3681498L324.512584 51.3681498C324.542116 51.3699992 324.571096 51.3595426 324.592643 51.3392628 324.614191 51.3189831 324.626325 51.2906892 324.626325 51.2610996L324.626325 46.0424011C324.626436 45.9857962 324.58246 45.9388886 324.525965 45.9353507L324.512584 45.9353507zM367.546774 54.5662751L356.460385 54.5662751C356.400091 54.5662751 356.350191 54.6131351 356.346644 54.6733255L356.346644 81.9510607C356.346644 82.0113554 356.393505 82.0612549 356.453695 82.0648016L362.68268 82.0648016C362.74287 82.0612549 362.789834 82.0113554 362.78973 81.9510607L362.78973 58.5338242C362.787298 58.5208073 362.791441 58.5074282 362.800805 58.4980645 362.810169 58.4887009 362.823548 58.4845574 362.836564 58.4869897L367.566846 58.4869897C368.851449 58.4869897 370.243102 58.6943995 371.153029 60.1730307 371.975977 61.5111585 372.343963 63.8595728 372.343963 67.5327337 372.343963 67.693309 372.343963 81.9309888 372.343963 81.9309888 372.343858 81.9912834 372.390822 82.041183 372.451013 82.0447297L378.653235 82.0447297C378.716052 82.0447297 378.766976 81.9938062 378.766976 81.9309888L378.766976 68.2753946C378.760285 61.8657624 377.482373 54.5662751 367.560156 54.5662751L367.546774 54.5662751zM352.205139 68.3088478C352.205139 74.7251706 350.867011 82.0848735 340.48983 82.0848735 330.112649 82.0848735 328.767831 74.7251706 328.767831 68.3088478 328.767831 61.892525 330.105958 54.5662752 340.48983 54.5662752 350.873702 54.5662752 352.21852 61.8992156 352.21852 68.3088478L352.205139 68.3088478zM345.741982 68.3088478C345.741982 63.5584941 345.159896 60.8621665 343.868603 59.6110171 343.092489 58.8349029 342.088893 58.5204429 340.523283 58.5204429 338.957674 58.5204429 337.934006 58.8349029 337.177964 59.6110171 335.839836 60.8956197 335.291204 63.578566 335.291204 68.3088478L335.291204 68.3088478C335.291204 72.3232312 335.706023 74.8589834 336.629331 76.3376146 337.619546 77.9500586 339.178465 78.1641591 340.576808 78.1641591 341.975152 78.1641591 343.540762 77.9500586 344.517595 76.3376146 345.340543 74.865674 345.755363 72.3232312 345.755363 68.3088478L345.741982 68.3088478zM229.264647 54.5662752L223.356813 54.5662752C223.290929 54.5698053 223.233276 54.6117347 223.209619 54.6733255L216.351714 72.4302814C216.324951 72.4927274 216.298189 72.4927274 216.271426 72.4302814L210.216398 54.6733255C210.197917 54.6079489 210.137094 54.5637135 210.069204 54.5662752L203.53914 54.5662752C203.51212 54.5632148 203.485615 54.5753022 203.47021 54.5977098 203.454805 54.6201174 203.45301 54.6491936 203.465543 54.6733255L212.725387 81.7302697C212.745464 81.8002245 212.745464 81.8744153 212.725387 81.9443701L207.526761 95.3256481C207.526761 95.3925545 207.526761 95.439389 207.593667 95.439389L213.006394 95.439389C213.077684 95.4365123 213.140602 95.3919452 213.16697 95.3256481L229.365007 54.7067786C229.358316 54.6064191 229.324863 54.5662752 229.264647 54.5662752zM382.774669 79.054014C382.774685 80.7150806 384.119951 82.0623187 385.781016 82.0647719 387.44208 82.0672185 388.791314 80.7239545 388.796244 79.0628953 388.801147 77.401836 387.459888 76.050609 385.798838 76.0432265 384.991389 76.0170891 384.208966 76.3254428 383.63645 76.8954264 383.063933 77.46541 382.752112 78.2464572 382.774669 79.054014L382.774669 79.054014zM383.256395 79.054014C383.274806 77.6589312 384.41677 76.5407963 385.811931 76.5518034 387.207092 76.5628104 388.331272 77.6988239 388.327679 79.0940235 388.324068 80.4892232 387.194037 81.6194167 385.798838 81.6232194 385.113616 81.6442355 384.450507 81.379392 383.968299 80.8921078 383.486091 80.4048236 383.228205 79.7389783 383.256395 79.054014L383.256395 79.054014zM384.594523 80.7868895L385.216752 80.7868895 385.216752 79.314949 385.631572 79.314949C386.153441 79.314949 386.267182 79.4420711 386.367542 79.8435094 386.441139 80.0843725 386.55488 80.5125733 386.641858 80.7868895L387.277469 80.7868895C387.177109 80.4590482 387.049987 80.1178256 386.936246 79.6963154 386.822505 79.2748051 386.668621 79.1276111 386.441139 79.0673953L386.441139 79.0673953C386.847373 78.999588 387.136416 78.6353937 387.110203 78.2243748 387.110203 77.5017858 386.641858 77.3211385 386.006247 77.3211385L384.607904 77.3211385 384.594523 80.7868895zM385.216752 77.7493394L385.812219 77.7493394C386.153441 77.7493394 386.481283 77.8229365 386.481283 78.2912812 386.481283 78.7596259 386.213657 78.8666762 385.772075 78.8666762L385.216752 78.8666762 385.216752 77.7493394zM392.797246 82.0648016L397.226449 82.0648016 397.226449 66.8369072 404.746727 66.8369072C411.16305 66.8369072 416.71628 63.986695 416.71628 55.9913813 416.71628 48.1031179 411.16305 45.7078692 404.67313 45.7078692L392.810627 45.7078692 392.797246 82.0648016zM397.226449 49.4211738L403.850182 49.4211738C408.533629 49.4211738 412.246934 50.4916761 412.246934 56.145266 412.246934 61.798856 408.533629 63.1236025 404.305145 63.1236025L397.23983 63.1236025 397.226449 49.4211738zM420.135197 44.6373669L420.135197 82.0648016 424.46404 82.0648016 424.46404 44.6373669 420.135197 44.6373669zM451.5812 82.0648016L451.5812 55.1751234 447.252357 55.1751234 447.252357 70.4030178C447.252357 76.6654559 443.592577 79.2614239 439.926107 79.2614239 435.03525 79.2614239 433.610144 76.2104925 433.610144 71.232657L433.610144 55.1751234 429.281301 55.1751234 429.281301 72.8986261C429.281301 78.8064604 432.847411 82.6736498 438.902439 82.6736498 442.622435 82.6736498 445.726891 80.9474649 447.359407 78.090562L447.406242 78.090562 447.406242 82.0648016 451.5812 82.0648016zM472.670095 56.0449065C470.662903 55.0279293 467.832763 54.5662752 464.97586 54.5662752 460.499822 54.5662752 455.709325 56.9079989 455.709325 62.1534599 455.709325 65.9202896 458.459177 68.2151788 463.249675 69.9480543 467.471468 71.47352 469.766357 72.845101 469.766357 75.3407094 469.766357 78.2979718 467.424634 79.2614239 464.266652 79.2614239 461.487841 79.1615898 458.757472 78.5040261 456.237885 77.3278292L455.120548 80.7400551C457.951822 82.0216018 461.02504 82.6809632 464.132839 82.6737099 468.916646 82.6737099 473.961388 80.7935802 473.961388 75.0864651 473.961388 70.5569025 470.616068 68.6233078 465.557945 66.7365476 461.275936 65.1575568 459.85083 63.986695 459.85083 61.6984964 459.85083 58.7947591 462.527086 57.9785011 464.942407 57.9785011 467.245145 57.9124924 469.532829 58.3700291 471.633046 59.3166289L472.670095 56.0449065zM92.9228051 96.8644951L91.7184901 96.8644951 91.7184901 96.4496755 94.5954649 96.4496755 94.5954649 96.8644951 93.4179124 96.8644951 93.4179124 100.464059 92.9228051 100.464059 92.9228051 96.8644951zM97.1111452 100.022477L97.1111452 100.022477 98.2485538 96.4496755 99.0915743 96.4496755 99.0915743 100.464059 98.6165389 100.464059 98.6165389 96.8243513 98.6165389 96.8243513 97.4122239 100.464059 96.8033758 100.464059 95.6392046 96.8243513 95.6392046 96.8243513 95.6392046 100.464059 95.1775505 100.464059 95.1775505 96.4496755 96.0004991 96.4496755 97.1111452 100.022477z"></path><path fill="url(#svg-def-36-ps_plus_light_theme-a)" fill-rule="nonzero" d="M110.679761,65.2043913 L107.655592,43.1252825 C107.547017,42.3011115 107.110361,41.5556603 106.444587,41.057875 C105.775923,40.5571461 104.937585,40.3385535 104.109554,40.4490269 L78.7319598,43.9281592 L75.27959,18.7044501 C75.1657248,17.8804703 74.7273239,17.1361524 74.0618937,16.6370426 C73.3959223,16.1360556 72.5595158,15.9173401 71.7335513,16.0281945 L49.4737953,19.0791259 C49.0562476,19.1367983 48.6539756,19.2754344 48.2895522,19.4872548 C47.9414988,19.6942531 47.6370028,19.966936 47.3930066,20.2901315 C47.1441061,20.6096359 46.962073,20.9759776 46.8577555,21.3673244 C46.7467086,21.7700953 46.7193839,22.1913511 46.7774678,22.6050926 L50.2231469,47.8087298 L24.8455531,51.2811715 C24.4277213,51.3376515 24.0252224,51.4763658 23.66131,51.6893005 C23.3111542,51.8960116 23.004412,52.1686713 22.7580737,52.4921771 C22.2514645,53.1504125 22.0297607,53.9842113 22.1425349,54.8071382 L25.1733944,76.886247 C25.2834287,77.7099166 25.7197762,78.4548415 26.3844001,78.9536545 C27.052451,79.4553415 27.8920797,79.6718646 28.7194331,79.555812 L54.0970269,76.0833703 L57.5493966,101.287008 C57.6621631,102.113332 58.0999151,102.86053 58.7655918,103.362927 C59.4312686,103.865325 60.2698623,104.081407 61.0954353,103.963263 L83.3551913,100.919022 C84.1819701,100.80736 84.9304898,100.371727 85.4359801,99.7080167 C85.9436576,99.0477261 86.1653807,98.2114441 86.0515189,97.386365 L82.6058398,72.1894184 L107.983434,68.7169768 C108.401411,68.65707 108.803678,68.5161628 109.167677,68.3021571 C109.514431,68.0935745 109.820466,67.8238106 110.070913,67.5059711 C110.312665,67.1829684 110.491928,66.8176338 110.599473,66.4287782 C110.707484,66.030085 110.734904,65.6137911 110.679761,65.2043913 L110.679761,65.2043913 Z"></path><path fill="#C58821" fill-rule="nonzero" d="M93.1569775,46.3702424 C89.1935215,46.9106004 85.9459755,49.7855503 84.9289782,53.6542305 C83.9119808,57.5229107 85.3258637,61.6232555 88.5111991,64.0428853 C91.6965346,66.4625151 96.0258644,66.7248031 99.4800117,64.7074195 C102.934159,62.6900359 104.832714,58.7903717 104.290201,54.8272102 C103.936315,52.2289231 102.564231,49.8778256 100.476088,48.2916395 C98.3879441,46.7054534 95.754977,46.0142526 93.1569775,46.3702424 L93.1569775,46.3702424 Z M95.3849603,62.6686391 C92.751155,63.03431 90.1566229,61.7763916 88.8124729,59.4820713 C87.4683228,57.1877509 87.6396103,54.30945 89.2463796,52.1907387 C90.8531489,50.0720274 93.5785581,49.1306984 96.1504058,49.8061573 C98.7222535,50.4816163 100.633392,52.6406681 100.991716,55.275483 C101.475887,58.8629126 98.9700161,62.1671933 95.3849603,62.6686391 L95.3849603,62.6686391 Z M60.9214787,21.7486908 L52.8191148,42.0547803 L74.6439793,39.0707553 L60.9214787,21.7486908 Z M58.024432,38.000253 L61.8849307,28.2988264 L68.4484476,36.5684563 L58.024432,38.000253 Z M27.7559811,56.2188631 L30.1980643,74.0494161 L48.0219267,71.6073328 L45.5865341,53.7767798 L27.7559811,56.2188631 Z M33.0348953,70.3093488 L31.4893576,59.055694 L42.7831563,57.516847 L44.3220033,68.7705019 L33.0348953,70.3093488 Z M72.6100251,87.9793265 L80.3444038,93.8537076 L78.3372121,96.49651 L70.6028334,90.6221289 L64.7351429,98.3565076 L62.0588873,96.3493159 L67.9265777,88.6216278 L60.1988897,82.7472468 L62.2060814,80.0709912 L69.9404601,85.9453722 L75.8148412,78.2109935 L78.4910968,80.2181852 L72.6100251,87.9793265 Z"></path><path fill="url(#svg-def-36-ps_plus_light_theme-b)" fill-rule="nonzero" d="M110.064222,67.526043 L103.96905,75.5079754 C103.462082,76.1700105 102.714314,76.6052071 101.888261,76.718981 L83.5960543,79.2279707 L82.639293,72.2094903 L108.016887,68.7370487 C108.434864,68.6771419 108.837131,68.5362347 109.20113,68.3222291 C109.535501,68.1123773 109.82813,67.8424327 110.064222,67.526043 L110.064222,67.526043 Z M84.5327438,100.530965 C84.171234,100.743879 83.7709225,100.882623 83.3551913,100.939094 L61.0954353,103.983335 C60.2698623,104.101479 59.4312686,103.885397 58.7655918,103.382999 C58.0999151,102.880602 57.6621631,102.133404 57.5493966,101.307079 L54.0970269,76.1034422 L28.7328144,79.5825745 C27.9054609,79.6986272 27.0658323,79.4821041 26.3977814,78.980417 C25.7331575,78.481604 25.29681,77.7366792 25.1867757,76.9130096 L22.1559162,54.8339008 C22.043142,54.0109739 22.2648457,53.1771751 22.771455,52.5189397 L16.6896641,60.4741095 C16.1657012,61.1276694 15.9248004,61.9635953 16.0206002,62.7957612 L19.0447691,84.87487 C19.1586343,85.6988497 19.5970351,86.4431677 20.2624654,86.9422774 C20.9305163,87.4439645 21.770145,87.6604876 22.5974984,87.544435 L47.9750922,84.0719933 L51.480987,109.295702 C51.5895619,110.119873 52.0262178,110.865325 52.6919927,111.36311 C53.360656,111.863839 54.1989944,112.082431 55.0270257,111.971958 L77.2867817,108.921027 C78.114789,108.812957 78.8645964,108.376573 79.3675705,107.710021 L85.4627426,99.7280886 C85.2082947,100.054018 84.8923162,100.326805 84.5327438,100.530965 L84.5327438,100.530965 Z M46.7975397,22.6050926 C46.7394558,22.1913511 46.7667805,21.7700953 46.8778274,21.3673244 C46.9821449,20.9759776 47.1641781,20.6096359 47.4130785,20.2901315 L41.2911438,28.2720639 C40.7848332,28.9302914 40.5653334,29.7648731 40.6822957,30.587025 L43.1712134,48.7721818 L50.2231469,47.8087298 L46.7975397,22.6050926 Z"></path></g></svg>