<?xml version="1.0" encoding="UTF-8"?>
<svg width="496px" height="59px" viewBox="0 0 496 59" version="1.1" xmlns="http://www.w3.org/2000/svg" xmlns:xlink="http://www.w3.org/1999/xlink">
    <title>Premium-JP</title>
    <defs>
        <linearGradient x1="0%" y1="50.0000767%" x2="100.000028%" y2="50.0000767%" id="linearGradient-1">
            <stop stop-color="#242424" offset="0%"></stop>
            <stop stop-color="#363636" offset="100%"></stop>
        </linearGradient>
    </defs>
    <g id="Premium" stroke="none" stroke-width="1" fill="none" fill-rule="evenodd">
        <g id="Premium-JP" transform="translate(1.000000, 1.000000)">
            <polygon id="Fill-1" stroke="#979797" stroke-width="2" fill="url(#linearGradient-1)" points="0 56.693 493.61 56.693 493.61 0 0 0"></polygon>
            <g id="Group-13" transform="translate(166.513900, 12.767300)" fill="#FDC100">
                <path d="M25.05,1.98 C23.961,1.98 23.103,2.839 23.103,3.894 C23.103,4.984 23.961,5.841 25.05,5.841 C26.107,5.841 26.965,4.984 26.965,3.894 C26.965,2.839 26.107,1.98 25.05,1.98 M4.785,30.431 L2.608,26.437 C13.201,24.324 17.361,17.888 18.318,10.496 L-2.84217094e-14,10.496 L-2.84217094e-14,6.337 L21.948,6.337 C21.42,5.677 21.123,4.818 21.123,3.894 C21.123,1.75 22.839,0 25.018,0 C27.196,0 28.945,1.75 28.945,3.894 C28.945,6.074 27.196,7.822 25.018,7.822 C24.588,7.822 24.193,7.755 23.829,7.625 C22.113,20.166 16.7,27.857 4.785,30.431" id="Fill-3"></path>
                <path d="M36.8616,30.3316 L36.8616,3.8946 L41.5486,3.8946 L41.5486,25.0176 C47.7196,24.5896 53.2316,21.1226 56.7306,15.2806 L59.4036,19.0116 C55.2456,25.8436 47.7196,29.8686 36.8616,30.3316" id="Fill-5"></path>
                <path d="M87.2219,20.2652 C82.6019,18.6812 76.5949,17.2942 70.7849,16.6672 L71.7429,12.4762 C77.9139,13.1032 83.9539,14.4902 88.5759,16.0402 L87.2219,20.2652 Z M89.4659,11.2552 C84.0539,9.5052 77.1889,8.1852 70.3239,7.6582 L71.2469,3.3672 C78.4089,3.9942 85.1759,5.3142 90.7209,6.9312 L89.4659,11.2552 Z M89.0039,30.6282 C83.5589,28.6812 75.2419,26.6012 67.5179,25.6132 L68.5409,21.3882 C76.5289,22.4762 84.5809,24.4232 90.4559,26.4372 L89.0039,30.6282 Z" id="Fill-7"></path>
                <path d="M104.2483,30.8257 L101.9383,27.2617 C108.3083,24.8867 109.3973,21.6847 109.3973,15.3807 L109.3973,10.8917 L114.0183,10.8917 L114.0183,15.4137 C114.0183,22.7397 112.0373,28.0207 104.2483,30.8257 M116.3943,19.8357 L114.1493,16.3377 C118.6053,14.5227 120.1893,11.8157 120.8163,8.7457 L99.4633,8.7457 L99.4633,4.8177 L126.4943,4.8177 C125.3063,12.1797 122.8963,17.1637 116.3943,19.8357" id="Fill-9"></path>
                <path d="M134.0139,29.6714 L133.4199,25.4464 C134.3439,25.3804 135.3019,25.3474 136.2259,25.2824 C139.1299,17.6244 141.4739,10.1984 143.3549,3.2674 L148.3709,3.2674 C146.2259,10.5624 143.9489,17.6574 141.1439,24.9524 C145.3679,24.6534 149.6249,24.2924 153.5199,23.9294 C152.2989,21.5194 150.8469,19.2084 149.2299,17.2944 L152.7609,15.1834 C156.0949,19.1104 159.1969,24.8864 160.5829,29.5074 L156.1939,30.9584 C155.9299,29.9354 155.5999,28.8784 155.2029,27.7904 C148.1409,28.5484 141.0109,29.2084 134.0139,29.6714" id="Fill-11"></path>
            </g>
        </g>
    </g>
</svg>