<?xml version="1.0" encoding="UTF-8"?>
<svg width="496px" height="59px" viewBox="0 0 496 59" version="1.1" xmlns="http://www.w3.org/2000/svg" xmlns:xlink="http://www.w3.org/1999/xlink">
    <title>JP Extra</title>
    <defs>
        <linearGradient x1="0%" y1="50.0000767%" x2="100.000067%" y2="50.0000767%" id="linearGradient-1">
            <stop stop-color="#FFE842" offset="0%"></stop>
            <stop stop-color="#FDC100" offset="100%"></stop>
        </linearGradient>
        <polygon id="path-2" points="0 56.693 493.228 56.693 493.228 0 0 0"></polygon>
    </defs>
    <g id="Extra" stroke="none" stroke-width="1" fill="none" fill-rule="evenodd">
        <g id="JP-Extra" transform="translate(1.000000, 1.000000)">
            <polygon id="Fill-1" fill="url(#linearGradient-1)" points="0 56.693 493.228 56.693 493.228 0 0 0"></polygon>
            <polygon id="Fill-3" fill="#000000" points="166.3711 41.5002 166.3711 37.5402 176.9991 37.5402 176.9991 22.7862 168.2851 22.7862 168.2851 18.8592 190.6631 18.8592 190.6631 22.7862 181.7191 22.7862 181.7191 37.5402 192.5771 37.5402 192.5771 41.5002"></polygon>
            <g id="Group-12">
                <path d="M211.6162,19.1564 L224.1252,19.1564 C221.7482,31.8954 216.5012,40.0484 206.6322,43.6124 L204.4212,40.0144 C212.9692,36.9124 216.9292,30.1464 218.2832,23.1494 L209.5372,23.1494 C207.3582,26.8794 204.6522,30.1794 201.8132,32.7544 L198.5122,29.8494 C202.9352,25.9884 206.3682,20.8064 208.1832,15.6244 L212.9692,15.6244 C212.5732,16.8124 212.1112,18.0014 211.6162,19.1564" id="Fill-4" fill="#000000"></path>
                <path d="M248.4443,31.8635 C251.3823,35.0645 255.5733,37.8375 259.3693,39.4215 L256.6633,43.3485 C252.9323,41.5665 248.6423,38.4975 245.6383,35.1635 C242.2073,38.7275 238.0483,41.5335 233.3943,43.3825 L230.9853,39.7515 C240.3583,36.1535 246.3323,28.8925 248.4773,22.1595 L234.1533,22.1595 L234.1533,18.2315 L254.5173,18.2315 C253.5273,23.2815 251.3823,27.9025 248.4443,31.8635" id="Fill-6" fill="#000000"></path>
                <path d="M269.6631,43.4806 L269.6631,14.8656 L274.2831,14.8656 L274.2831,24.5026 C279.5971,26.3836 285.0101,28.9256 289.2011,31.5006 L286.6271,35.6256 C283.1941,33.2496 278.8381,31.0386 274.2831,29.3216 L274.2831,43.4806 L269.6631,43.4806 Z" id="Fill-8" fill="#000000"></path>
                <mask id="mask-3" fill="white">
                    <use xlink:href="#path-2"></use>
                </mask>
                <use id="Clip-11" stroke="#979797" stroke-width="2" xlink:href="#path-2"></use>
                <path d="M300.418,20.477 L319.165,20.477 L319.165,16.384 L300.418,16.384 L300.418,20.477 Z M304.544,43.547 L303.025,39.653 C311.64,38.728 316.359,34.47 317.316,28.364 L296.92,28.364 L296.92,24.272 L322.763,24.272 C321.739,34.735 316.294,42.227 304.544,43.547 L304.544,43.547 Z" id="Fill-10" fill="#000000" mask="url(#mask-3)"></path>
            </g>
        </g>
    </g>
</svg>