<svg viewBox="0 0 70 24" xmlns="http://www.w3.org/2000/svg" xmlns:xlink="http://www.w3.org/1999/xlink" data-di-res-id="fe61bb25-2347561" data-di-rand="1746623686399"><defs><path d="M6.54545 2.18182h56.72728c2.40997 0 4.36363 1.95366 4.36363 4.36363v10.9091c0 2.40997-1.95366 4.36363-4.36363 4.36363H6.54545c-2.40997 0-4.36363-1.95366-4.36363-4.36363V6.54545c0-2.40997 1.95366-4.36363 4.36363-4.36363Z" id="svg-def-6-icon-badges-ps4-ps5-a"></path><path d="M6.54545 2.18182h56.72728c2.40997 0 4.36363 1.95366 4.36363 4.36363v10.9091c0 2.40997-1.95366 4.36363-4.36363 4.36363H6.54545c-2.40997 0-4.36363-1.95366-4.36363-4.36363V6.54545c0-2.40997 1.95366-4.36363 4.36363-4.36363Z" id="svg-def-6-icon-badges-ps4-ps5-c"></path></defs><g fill="none" fill-rule="evenodd"><rect fill="#000" fill-rule="nonzero" opacity=".07957" width="69.81818" height="24" rx="6"></rect><path d="M63.27273 2.18182H6.54545c-2.40997 0-4.36363 1.95366-4.36363 4.36363v10.9091c0 2.40997 1.95366 4.36363 4.36363 4.36363h56.72728c2.40997 0 4.36363-1.95366 4.36363-4.36363V6.54545c0-2.40997-1.95366-4.36363-4.36363-4.36363Z" fill="#000" fill-rule="nonzero"></path><mask id="svg-def-6-icon-badges-ps4-ps5-b" fill="#fff"><use xlink:href="#svg-def-6-icon-badges-ps4-ps5-a"></use></mask><path d="M2.18182-4.36364h37.0909l-6.93047 26.18182H6.54545c-2.40997 0-4.36363-1.95366-4.36363-4.36363V-4.36364Z" fill="#FFF" fill-rule="nonzero" mask="url(#svg-def-6-icon-badges-ps4-ps5-b)"></path><mask id="svg-def-6-icon-badges-ps4-ps5-d" fill="#fff"><use xlink:href="#svg-def-6-icon-badges-ps4-ps5-c"></use></mask><path d="M13.85496 9.27273H8.36883c-.01789 0-.03256.01745-.03256.03872V9.816c0 .02127.01467.03873.03301.03873h4.9959c.41044 0 .74292.396.74292.88418 0 .48764-.33248.88364-.74292.88364H9.56896c-.68055 0-1.2327.65618-1.2327 1.46618v1.59982c0 .02181.01468.03872.03302.03872h.91398c.01788 0 .03302-.0169.03302-.03872v-1.59982c0-.48764.33247-.8831.74246-.8831h3.79622c.68055 0 1.2327-.65672 1.2327-1.46672s-.55215-1.46618-1.2327-1.46618Zm14.55697 2.35036h-4.11645c-.19476 0-.3524-.18764-.3524-.42V9.894c0-.02127.01467-.03927.03254-.03927h5.52878c.01787 0 .033-.01746.033-.03873v-.50455c0-.02181-.01513-.03872-.033-.03872h-6.50714c-.01833 0-.033.0169-.033.03872v2.01c0 .48764.3327.88419.74283.88419h4.20902c.44954 0 .82255.438.82072.97309-.00137.53454-.36568.96654-.81477.96654h-4.9248c-.01833 0-.033.01746-.033.03873v.50455c0 .02127.01467.03872.033.03872h5.41467c.71991 0 1.30372-.69436 1.30372-1.55236 0-.85691-.5838-1.55182-1.30372-1.55182ZM19.1367 9.27273c-.63147 0-1.14302.65618-1.14302 1.46618v2.52218c0 .48818-.3083.88418-.68888.88418h-2.18696c-.01658 0-.03019.01746-.03019.03873v.50455c0 .02127.0136.03872.0302.03872h2.6411c.63104 0 1.14302-.65618 1.14302-1.46618v-2.52218c0-.48818.30829-.88418.68887-.88418h2.21758c.01658 0 .03062-.01746.03062-.03873v-.50455c0-.02181-.01361-.03872-.03062-.03872H19.1367Z" fill="#000" fill-rule="nonzero" mask="url(#d)"></path><path d="M59.49256 13.59609c0 .02262-.0155.04027-.03288.04027h-4.4072c-.0357 0-.05448-.01048-.05965-.02648-.00517-.02427.00658-.04193.03241-.06344l4.38605-3.17114c.03054-.02151.08127-.0182.08127.05242v3.16837Zm2.21603-.03466-.95825-.00109c-.01913 0-.03491-.01746-.03491-.03819V9.85223c0-.56355-.34142-.7485-.82198-.41025L54.131 13.4796c-.22618.15875-.3022.3377-.2477.46972.04734.1151.17167.19421.42127.19421l5.3517.00055c.01483.00109.02679.0131.03061.02837v.51554c0 .02128.01482.03928.033.03928h.96256c.01817 0 .03347-.018.03347-.03928v-.50463c0-.02128.01578-.03928.03347-.03928h.95921c.01913 0 .03443-.018.03443-.03928v-.50518c0-.02128-.0153-.03819-.03443-.03819Zm-15.88935-4.2887h-5.4235c-.01788 0-.0321.01691-.0321.03764v.50683c0 .02128.01422.03764.03256.03764h5.09737c.43208 0 .63711.37044.63711.88382 0 .51392-.20457.88326-.63711.88326h-4.03276c-.62565 0-1.09717.62577-1.09717 1.45557v1.6116c0 .02182.01467.03818.03256.03818h.9192c.0179 0 .03212-.01691.03212-.03819v-1.6116c0-.51337.24906-.87235.60638-.87235h3.86534c.86966 0 1.29578-.63503 1.29578-1.46538 0-.82926-.42612-1.46702-1.29578-1.46702Zm9.1724.54436v-.50618c0-.02127-.0148-.03818-.03238-.03818h-3.02263c-.87683 0-1.30553.63763-1.30553 1.46672v2.52164c0 .51327-.20672.8831-.64282.8831H47.1474c-.01803 0-.03237.0169-.03237.03817v.50673c0 .02127.01434.03818.03237.03818h3.16924c.87682 0 1.30645-.636 1.30645-1.46563v-2.52328c0-.51327.20672-.88309.6419-.88309h2.69428c.01804 0 .03238-.01745.03238-.03818Z" fill="#FCFCFC" fill-rule="nonzero" mask="url(#svg-def-6-icon-badges-ps4-ps5-d)"></path></g></svg>