<svg xmlns="http://www.w3.org/2000/svg" viewBox="0 0 478 128" data-di-res-id="b617f9ba-14e0b7be" data-di-rand="1746623686406"><defs><linearGradient id="svg-def-41-ps_store_light_theme-a" x1="9.374%" x2="89.156%" y1=".799%" y2="92.122%"><stop offset="0%" stop-color="#01BBEF"></stop><stop offset="100%" stop-color="#0074BC"></stop></linearGradient></defs><g><rect width="478" height="128" fill="transparent"></rect><path fill-rule="nonzero" d="M145.209208,60.116608 C145.209208,63.4524626 144.313761,66.2396985 142.598539,68.1693233 C141.222059,69.7687147 139.228479,70.7047106 137.118657,70.7421564 L131.329782,70.7421564 C131.300688,70.7423847 131.272911,70.7300417 131.25358,70.7082954 C131.23425,70.686549 131.225249,70.6575164 131.228887,70.6286491 L131.228887,67.1225334 C131.227144,67.0946994 131.236999,67.0673854 131.256113,67.0470771 C131.275227,67.0267687 131.301894,67.0152775 131.329782,67.015332 L135.371905,67.015332 C137.812313,67.015332 139.155483,64.5433943 139.155483,60.0787722 C139.155483,55.6141501 137.812313,53.1422124 135.371905,53.1422124 L128.656054,53.1422124 C128.656054,53.1422124 128.618218,53.1422124 128.618218,53.1926601 L128.618218,83.3603893 C128.618316,83.4172173 128.574052,83.4642479 128.517323,83.4675907 L122.652777,83.4675907 C122.593571,83.4675907 122.545575,83.419595 122.545575,83.3603893 L122.545575,49.5415072 C122.545575,49.5136188 122.557012,49.4869517 122.57732,49.4678379 C122.597629,49.4487242 122.624943,49.4388687 122.652777,49.4404143 L137.124963,49.4404143 C142.04992,49.4469178 145.209208,53.6403835 145.209208,60.116608 Z M154.800578,49.4406118 L148.936032,49.4406118 C148.907165,49.436974 148.878132,49.4459752 148.856386,49.4653053 C148.83464,49.4846354 148.822297,49.5124124 148.822522,49.5415072 L148.822522,83.3856131 C148.822522,83.4151718 148.83463,83.4434399 148.856119,83.4637356 C148.877609,83.4840313 148.906525,83.4945533 148.936032,83.4930004 L154.800578,83.4930004 C154.858436,83.4896803 154.904646,83.4434709 154.90778,83.3856131 L154.90778,49.5415072 C154.904437,49.4847775 154.857406,49.4405134 154.800578,49.4406118 Z M180.289283,57.5753047 L169.865525,57.5753047 C160.494863,57.5753047 159.29673,64.4551108 159.29673,70.4962238 L159.29673,75.7238675 C159.29673,80.2263254 162.096578,83.4928145 165.943216,83.4928145 L171.618583,83.4928145 C171.676441,83.4896803 171.72265,83.4434709 171.725784,83.3856131 L171.725784,79.8794974 C171.72265,79.8216397 171.676441,79.7754303 171.618583,79.7722961 L167.551237,79.7722961 C166.611648,79.7722961 165.344149,79.3561025 165.344149,76.1274492 L165.344149,70.4520821 C165.344149,66.7000338 165.690977,64.3037677 166.472917,62.9416796 C167.31161,61.4345543 168.642168,61.2327635 169.833995,61.2327635 L174.2797,61.2327635 C174.2797,61.2327635 174.311229,61.2327635 174.317535,61.2832112 C174.323841,61.3336589 174.317535,83.3540833 174.317535,83.3540833 C174.317535,83.413289 174.365531,83.4612847 174.424737,83.4612847 L180.282977,83.4612847 C180.340834,83.4581505 180.387044,83.4119411 180.390178,83.3540833 L180.390178,57.6762001 C180.387063,57.6218196 180.343663,57.5784196 180.289283,57.5753047 L180.289283,57.5753047 Z M222.614909,63.6290296 L219.720472,63.4083209 C217.557527,63.219142 215.936894,62.0210089 215.936894,58.4707515 C215.936894,54.3277335 217.797153,53.1926601 220.281703,53.1926601 L228.277665,53.1926601 C228.335522,53.1895259 228.381732,53.1433165 228.384866,53.0854587 L228.384866,49.5415072 C228.381523,49.4847775 228.334493,49.4406117 228.277665,49.4406117 L219.449316,49.4406117 C213.994657,49.4406117 210.110184,52.6503472 210.110184,59.0382882 L210.110184,59.3157506 C210.110184,64.3605214 213.212718,67.9990623 217.834989,68.3521962 L220.710508,68.566599 C222.904984,68.730554 224.273378,70.6917087 224.273378,73.6681234 L224.273378,74.5068166 C224.273378,76.3986056 223.806737,79.778602 219.815062,79.778602 L211.484884,79.778602 C211.456996,79.7785475 211.430328,79.7900387 211.411215,79.8103471 C211.392101,79.8306555 211.382245,79.8579695 211.383989,79.8858034 L211.383989,83.3856131 C211.38389,83.4424411 211.428154,83.4894718 211.484884,83.4928145 L221.80144,83.4928145 C224.985952,83.4928145 230.308185,82.2316218 230.308185,73.5546161 C230.308185,70.4016344 229.595611,67.9486146 228.151545,66.157721 C226.9408,64.6253718 225.118377,63.7992906 222.614909,63.6290296 Z M270.571762,57.5753047 L260.097556,57.5753047 C250.745812,57.5753047 249.535067,64.4551108 249.535067,70.4962238 L249.535067,75.7238675 C249.535067,80.2263254 252.328609,83.4928145 256.200471,83.4928145 L261.875838,83.4928145 C261.933696,83.4896803 261.979905,83.4434709 261.983039,83.3856131 L261.983039,79.8794974 C261.979905,79.8216397 261.933696,79.7754303 261.875838,79.7722961 L257.802186,79.7722961 C256.868903,79.7722961 255.614016,79.3561025 255.614016,76.1274492 L255.614016,70.4520821 C255.614016,66.7000338 255.96715,64.3037677 256.723866,62.9416796 C257.568865,61.4345543 258.905729,61.2327635 260.084944,61.2327635 L264.555872,61.2327635 C264.555872,61.2327635 264.593708,61.2327635 264.600014,61.2832112 L264.600014,83.3540833 C264.603148,83.4119411 264.649358,83.4581505 264.707216,83.4612847 L270.578068,83.4612847 C270.604846,83.4596635 270.629876,83.4474445 270.647626,83.4273283 C270.665375,83.407212 270.674383,83.3808552 270.672866,83.3540833 L270.672866,57.6762001 C270.672866,57.6204771 270.627485,57.5753047 270.571762,57.5753047 Z M247.09466,57.5753047 L240.731942,57.5753047 C240.713539,57.5721958 240.700152,57.5561313 240.700413,57.5374689 L240.700413,53.2683316 C240.700467,53.2404432 240.688976,53.2137761 240.668668,53.1946623 C240.648359,53.1755486 240.621045,53.1656931 240.593211,53.1672388 L234.734971,53.1672388 C234.706527,53.1657137 234.678568,53.1753866 234.65727,53.1943183 C234.635972,53.2132499 234.623088,53.2398821 234.621464,53.2683316 L234.621464,75.7301735 C234.621464,80.2263254 237.427618,83.4928145 241.286867,83.4928145 L245.486639,83.4928145 C245.544497,83.4896803 245.590706,83.4434709 245.59384,83.3856131 L245.59384,79.8858034 C245.593933,79.8254973 245.546852,79.7756463 245.486639,79.7722961 L242.9075,79.7722961 C242.245374,79.7722961 240.700413,79.7281543 240.694107,76.4112175 L240.694107,61.2769052 C240.693846,61.2582429 240.707233,61.2421783 240.725637,61.2390695 C242.680485,61.2390695 247.09466,61.2390695 247.09466,61.2390695 C247.149271,61.2394486 247.195437,61.1987131 247.201861,61.14448 L247.201861,57.6762001 C247.198518,57.6194704 247.151488,57.5752063 247.09466,57.5753047 L247.09466,57.5753047 Z M288.045586,57.5753047 L281.739623,57.5753047 C281.717508,57.5755314 281.698639,57.5593579 281.695481,57.5374689 L281.695481,53.2683316 C281.695585,53.2149812 281.654138,53.1707705 281.600892,53.1674361 L275.723734,53.1674361 C275.666906,53.1674361 275.619875,53.211602 275.616532,53.2683316 L275.616532,75.7301735 C275.616532,80.2263254 278.41638,83.4928145 282.27563,83.4928145 L286.469095,83.4928145 C286.528301,83.4928145 286.576297,83.4448188 286.576297,83.3856131 L286.576297,79.8858034 C286.57639,79.8254973 286.529308,79.7756463 286.469095,79.7722961 L283.896262,79.7722961 C283.22783,79.7722961 281.695481,79.7281543 281.695481,76.4112175 L281.695481,61.2769052 C281.69522,61.2582429 281.708607,61.2421783 281.727011,61.2390695 C283.662942,61.2390695 288.07081,61.2390695 288.07081,61.2390695 C288.124161,61.2391738 288.168371,61.1977263 288.171757,61.14448 L288.171757,57.6762001 C288.172719,57.6444356 288.158707,57.6140501 288.13389,57.5941969 C288.109074,57.5743437 288.076354,57.5673434 288.045586,57.5753047 L288.045586,57.5753047 Z M297.737852,57.5751072 L291.873306,57.5751072 C291.816478,57.5751072 291.769448,57.6194704 291.766105,57.6762001 L291.766105,83.3856131 C291.769239,83.4434709 291.815448,83.4896803 291.873306,83.4928145 L297.737852,83.4928145 C297.797058,83.4928145 297.845054,83.4448188 297.845054,83.3856131 L297.845054,57.6762001 C297.845054,57.6483117 297.833617,57.6216446 297.813308,57.6025308 C297.793,57.583417 297.765686,57.5735616 297.737852,57.5751072 Z M297.737852,49.4406118 L291.873306,49.4406118 C291.816478,49.4405134 291.769448,49.4847775 291.766105,49.5415072 L291.766105,54.4601587 C291.769448,54.5168884 291.816478,54.5611526 291.873306,54.5610542 L297.737852,54.5610542 C297.765686,54.5627972 297.793,54.5529418 297.813308,54.533828 C297.833617,54.5147143 297.845054,54.4880471 297.845054,54.4601587 L297.845054,49.5415072 C297.845054,49.5136188 297.833617,49.4869517 297.813308,49.4678379 C297.793,49.4487242 297.765686,49.4388687 297.737852,49.4406118 Z M338.297809,57.5753047 L327.836216,57.5753047 C327.780493,57.5753047 327.73532,57.6204771 327.73532,57.6762001 L327.73532,83.3856131 C327.73532,83.4424411 327.779486,83.4894718 327.836216,83.4928145 L333.707068,83.4928145 C333.763797,83.4894718 333.808062,83.4424411 333.807963,83.3856131 L333.807963,61.314741 C333.807963,61.314741 333.807963,61.2705993 333.845799,61.2705993 L338.310421,61.2705993 C339.51486,61.2705993 340.832806,61.4660841 341.684112,62.8597021 C342.459745,64.1208948 342.812879,66.3342879 342.812879,69.7962619 C342.812879,69.947605 342.812879,83.3666952 342.812879,83.3666952 C342.812879,83.4259009 342.860875,83.4738966 342.92008,83.4738966 L348.765708,83.4738966 C348.824914,83.4738966 348.87291,83.4259009 348.87291,83.3666952 L348.87291,70.4962238 C348.853992,64.4551108 347.649553,57.5753047 338.297809,57.5753047 Z M323.838235,70.5277536 C323.838235,76.5751726 322.577042,83.5117324 312.796493,83.5117324 C303.015944,83.5117324 301.754751,76.5751726 301.754751,70.5277536 C301.754751,64.4803347 303.015944,57.5753047 312.796493,57.5753047 C322.577042,57.5753047 323.838235,64.4866406 323.838235,70.5277536 L323.838235,70.5277536 Z M317.746674,70.5277536 C317.746674,66.0505196 317.198055,63.5092163 315.981004,62.3300011 C315.249513,61.5985094 314.309924,61.3021291 312.796493,61.3021291 C311.283062,61.3021291 310.362391,61.5985094 309.643511,62.3300011 C308.382318,63.5407461 307.865229,66.0694375 307.865229,70.5277536 L307.865229,70.5277536 C307.865229,74.3113317 308.256199,76.7012919 309.126422,78.0949098 C310.053399,79.614647 311.528994,79.8164378 312.840635,79.8164378 C314.152275,79.8164378 315.634176,79.614647 316.561153,78.0949098 C317.36201,76.7075978 317.746674,74.3113317 317.746674,70.5277536 L317.746674,70.5277536 Z M207.953544,57.5752497 L202.391685,57.5752497 C202.327264,57.5761412 202.269835,57.6160919 202.246647,57.6762001 L195.783035,74.4122271 C195.757811,74.4710828 195.732587,74.4710828 195.707363,74.4122271 L190.000466,57.6762001 C189.985627,57.615557 189.930448,57.5735155 189.868041,57.5752497 L183.738645,57.5752497 C183.681891,57.5752497 183.656667,57.6194464 183.669279,57.6762001 L192.339979,83.1775163 C192.355792,83.2438506 192.355792,83.3129729 192.339979,83.3793072 L187.440245,95.9912341 C187.440245,96.0542937 187.440245,96.0984355 187.503305,96.0984355 L192.604829,96.0984355 C192.672583,96.0974094 192.732724,96.0548089 192.756172,95.9912341 L208.016604,57.6762001 C208.041828,57.6131405 208.016604,57.5752497 207.953544,57.5752497 Z M353.142047,83.4928145 L353.602382,83.4928145 L353.602382,80.0939002 L354.718538,80.0939002 L354.718538,79.7092364 L352.000668,79.7092364 L352.000668,80.0939002 L353.142047,80.0939002 L353.142047,83.4928145 Z M356.04279,79.7092364 L355.260851,79.7092364 L355.260851,83.4928145 L355.695962,83.4928145 L355.695962,80.0560644 L355.695962,80.0560644 L356.780588,83.4928145 L357.360737,83.4928145 L358.483198,80.0560644 L358.483198,80.0560644 L358.483198,83.4928145 L358.924616,83.4928145 L358.924616,79.7092364 L358.161594,79.7092364 L357.095886,83.0766209 L357.095886,83.0766209 L356.04279,79.7092364 Z M382.206233,50.0712082 C379.485646,49.0795172 376.607558,48.5902208 373.7121,48.6271425 C368.528598,48.6271425 362.575768,51.3197889 362.575768,57.6509762 C362.575768,62.2101878 365.508041,65.1424608 371.359976,67.4945852 C376.543478,69.600777 379.557728,71.3790587 379.557728,74.8851744 C379.557728,78.7255061 376.436276,80.5605415 372.30587,80.5605415 C369.125999,80.5118563 365.996567,79.7580359 363.143305,78.3534543 L362.083903,81.9478535 C365.285696,83.3182582 368.728621,84.0364276 372.211281,84.0603512 C377.886648,84.0603512 383.732276,81.3740108 383.732276,74.601406 C383.732276,69.2728669 380.371197,66.6811159 373.894973,64.1839544 C368.566434,62.1219043 366.74401,60.4445181 366.74401,57.3735139 C366.74401,53.3881449 370.388857,52.1395642 373.68057,52.1395642 C376.258646,52.1387432 378.813515,52.6266075 381.209891,53.5773239 L382.206233,50.0712082 Z M384.943021,61.3462708 L389.458091,61.3462708 L389.458091,76.7517396 C389.458091,81.2857273 390.322008,83.8081127 395.619017,83.8081127 C396.905435,83.787956 398.188788,83.6762685 399.459349,83.4738966 L399.459349,80.4028924 C398.568689,80.5215755 397.671511,80.5847571 396.773008,80.5920713 C393.891183,80.5920713 393.556967,79.961475 393.556967,76.512113 L393.556967,61.3778007 L399.402595,61.3778007 L399.402595,58.1617593 L393.538049,58.1617593 L393.538049,51.7675123 L389.458091,51.7675123 L389.458091,58.1491474 L384.943021,58.1491474 L384.943021,61.3462708 Z M424.348987,70.7547683 C424.348987,62.5002621 419.840223,57.5563868 412.588365,57.5563868 C405.336507,57.5563868 400.834049,62.5002621 400.834049,70.7547683 C400.834049,79.0092745 405.342813,84.0477393 412.588365,84.0477393 C419.833917,84.0477393 424.348987,79.0281924 424.348987,70.7736862 L424.348987,70.7547683 Z M420.269028,70.7547683 C420.269028,76.6571501 417.872762,80.8443099 412.588365,80.8443099 C407.404863,80.8443099 404.914007,76.669762 404.914007,70.7547683 C404.914007,64.8397746 407.310273,60.7724282 412.588365,60.7724282 C417.866456,60.7724282 420.269028,64.9217521 420.269028,70.7736862 L420.269028,70.7547683 Z M440.094977,57.6509762 C439.488149,57.5792066 438.877242,57.547608 438.266248,57.5563868 C435.006065,57.5563868 432.893567,58.8554153 431.644986,61.5417557 L431.600845,61.5417557 L431.600845,58.1491474 L427.659617,58.1491474 L427.659617,83.4928145 L431.739576,83.4928145 L431.739576,68.6738004 C431.739576,62.7714186 434.432222,60.803958 437.786995,60.803958 C438.493889,60.7963467 439.200272,60.8448447 439.899492,60.9489951 L440.094977,57.6509762 Z M461.831633,71.9276775 L461.831633,69.9349931 C461.831633,62.4435085 458.420107,57.5500808 451.319592,57.5500808 C444.219077,57.5500808 439.893186,63.1686943 439.893186,70.8430518 C439.893186,78.410208 444.307361,84.0414333 452.706904,84.0414333 C455.292221,84.084827 457.861609,83.6287607 460.27406,82.6982631 L459.599322,79.5452814 C457.429476,80.392993 455.118396,80.8209708 452.788882,80.8064741 C447.409895,80.8064741 444.099264,77.3066644 443.80919,71.8835358 L461.831633,71.9276775 Z M451.37004,60.7913461 C455.405857,60.7913461 458.136339,63.6731714 458.136339,68.5161513 L458.136339,68.7116362 L443.834414,68.7116362 C444.269525,64.0578351 446.810828,60.7913461 451.37004,60.7913461 Z"></path><path fill="#F48250" fill-rule="nonzero" d="M49.3081156,19.38639 C49.9525465,19.3201693 50.6032641,19.4177769 51.1999047,19.6701583 C47.0694986,25.3455254 46.3253949,35.9962977 46.1992756,40.0384203 L49.0495711,40.0384203 C49.2072202,34.7666348 50.2413982,25.6734355 53.5015813,21.3349327 C57.2851594,25.3076897 59.7570971,34.0036133 60.5264246,40.0384203 L63.4082499,40.0384203 C62.6326164,33.4865243 59.9778058,24.0780268 55.639303,19.4179198 C56.2747072,19.0805461 56.9819662,18.9010278 57.701353,18.8945248 C59.0319113,18.8945248 60.2678801,19.5251212 61.4849311,20.8493735 C65.6783968,25.4464209 67.53235,36.0845812 67.9359317,40.0384203 L70.7925331,40.0384203 C70.4457052,35.6242459 68.572834,25.5347043 64.5180995,20.0232923 C62.5443329,17.3369518 60.2552682,15.9874757 57.707659,16 C56.1229745,16.0013301 54.5827883,16.5243286 53.3250144,17.488295 C52.0436337,16.7012443 50.5396699,16.3557092 49.0432652,16.5045647 C41.476109,17.2801982 39.3951411,29.1669393 39.1176787,40.0384203 L41.9805861,40.0384203 C42.2769664,27.319292 44.9128591,19.8341134 49.3081156,19.38639 Z"></path><path fill="url(#svg-def-41-ps_store_light_theme-a)" fill-rule="nonzero" d="M89.6915056,39.912301 C89.6517389,39.5370823 89.3240617,39.2593897 88.947402,39.2817047 L81.348716,38.184467 C81.2775714,38.1748573 81.2054578,38.1748573 81.1343132,38.184467 C78.1831223,38.184467 67.4755964,38.1466313 50.7584872,38.1466313 C34.0413781,38.1466313 23.2455686,38.3547281 20.3259076,38.4177877 C19.8902985,38.408825 19.5203736,38.7349069 19.4746025,39.1681973 C19.3043415,42.0626346 18.6359094,53.4133688 17.6963208,70.8619697 C16.7062845,89.3132188 16.1387478,99.3775365 16,102.044959 C15.9974432,102.441095 16.2937959,102.775511 16.6873666,102.820593 L46.9559913,107.430252 L76.852564,111.989463 C77.0884732,112.02473 77.3290557,111.970767 77.5273021,111.83812 L77.5273021,111.83812 L92.3021745,102.303504 C92.6850473,102.052893 92.9078219,101.619321 92.8886291,101.162124 L89.6915056,39.912301 Z"></path><path fill="#FFF" fill-rule="nonzero" d="M51.6791579,58.7419079 C50.6828157,58.4266098 50.0585253,59.3725043 50.0585253,60.7472043 L50.0585253,90.3473968 L42.0688696,87.8250114 L42.0688696,52.511616 C45.7924923,53.3008716 49.4667408,54.307342 53.0727758,55.5258666 C59.8327687,57.8527671 62.1281394,60.7472043 62.1281394,67.2360407 C62.1281394,73.5924519 58.212136,76.0013299 53.2367309,73.5924519 L53.2367309,61.7687704 C53.2367309,60.3940704 52.9844923,59.1076538 51.6791579,58.7419079 Z M69.096229,77.3129703 C65.546854,76.0652679 61.7656036,75.6173749 58.0229571,76.0013299 C55.9999523,76.2118659 54.0047007,76.6345887 52.0701276,77.2625226 L51.5782625,77.4201717 L51.5782625,82.2316218 L60.1417609,79.2110653 C61.684517,78.6808558 63.3453674,78.5956279 64.9342931,78.9651327 C66.1135083,79.3497965 65.8864936,80.0812883 64.436122,80.6172952 L51.5971804,85.1891187 L51.5971804,89.8113899 L69.0394753,83.5495682 C69.0394753,83.5495682 71.3852937,82.6730393 72.3564121,81.4749062 C73.3275305,80.2767731 72.8671951,78.5111034 69.096229,77.3129703 Z M24.6707164,80.0245346 C22.9113526,81.336175 23.5545609,83.6126278 27.4201165,84.6909476 C31.377835,86.0236707 35.6010815,86.3700159 39.7230512,85.6999017 L40.5239085,85.5737825 L40.5239085,81.4118466 L36.5637635,82.8369943 C35.0284269,83.3818059 33.3679927,83.4694278 31.7838432,83.0892329 C30.610934,82.7045691 30.8316427,81.9667714 32.2883203,81.4433764 L40.5239085,78.4921855 L40.5239085,73.8509964 L29.0722789,77.9309547 C27.5205318,78.4350398 26.0409349,79.1388022 24.6707164,80.0245346 L24.6707164,80.0245346 Z M66.9648133,90.3347849 L67.4251487,90.3347849 L67.4251487,86.9610944 L68.5349982,86.9610944 L68.5349982,86.5701247 L65.817128,86.5701247 L65.817128,86.9610944 L66.9585074,86.9610944 L66.9648133,90.3347849 Z M69.8592506,86.5512068 L69.0836171,86.5512068 L69.0836171,90.3347849 L69.5187285,90.3347849 L69.5187285,86.9043407 L69.5187285,86.9043407 L70.6033542,90.3347849 L71.1771969,90.3347849 L72.3059644,86.9043407 L72.3059644,86.9043407 L72.3059644,90.3347849 L72.7536878,90.3347849 L72.7536878,86.5512068 L71.9654424,86.5512068 L70.8997345,89.9185913 L70.8997345,89.9185913 L69.8592506,86.5512068 Z"></path></g></svg>