<?xml version="1.0" encoding="UTF-8"?>
<svg width="497px" height="59px" viewBox="0 0 497 59" version="1.1" xmlns="http://www.w3.org/2000/svg" xmlns:xlink="http://www.w3.org/1999/xlink">
    <title>JA Essential</title>
    <g id="Essential" stroke="none" stroke-width="1" fill="none" fill-rule="evenodd">
        <g id="JA-Essential" transform="translate(1.895500, 1.000000)">
            <polygon id="Fill-1" stroke="#979797" stroke-width="2" fill="#FFFFFF" points="0 56.436 493.819 56.436 493.819 0 0 0"></polygon>
            <polygon id="Fill-2" fill="#000000" points="132.2312 41.4174 132.2312 37.4574 142.8582 37.4574 142.8582 22.7034 134.1452 22.7034 134.1452 18.7764 156.5222 18.7764 156.5222 22.7034 147.5782 22.7034 147.5782 37.4574 158.4372 37.4574 158.4372 41.4174"></polygon>
            <g id="Group-15" transform="translate(165.990700, 14.947700)" fill="#000000">
                <path d="M9.638,17.2948 C9.209,15.2808 7.954,11.1228 6.799,8.6808 L10.397,7.2608 C11.618,9.7028 13.004,13.5978 13.631,15.8428 L9.638,17.2948 Z M5.974,28.7798 L3.829,25.3148 C12.971,23.3018 16.569,16.5348 16.998,8.0208 L21.288,8.0208 C20.86,17.3938 16.14,26.5028 5.974,28.7798 L5.974,28.7798 Z M2.872,18.3508 C2.443,16.3378 1.156,12.2778 2.84217094e-14,9.7028 L3.565,8.3168 C4.82,10.8258 6.205,14.5878 6.866,16.8988 L2.872,18.3508 Z" id="Fill-3"></path>
                <path d="M49.7337,20.331 L46.6307,17.427 C49.5687,15.479 51.0877,12.674 51.5157,10.1 L41.3177,11.288 L41.3177,20.232 C41.3177,22.608 42.0447,23.434 44.4867,23.664 C45.7737,23.829 47.4897,23.797 49.0417,23.797 C51.0537,23.797 52.8367,23.764 55.1797,23.599 L55.1797,27.691 C53.3977,27.79 51.6477,27.823 49.0737,27.823 C46.8297,27.856 44.4867,27.757 42.8027,27.592 C38.8757,27.196 36.6647,24.819 36.6647,20.43 L36.6647,11.815 L29.6337,12.641 L29.1387,8.614 L36.6647,7.822 L36.6647,0 L41.3177,0 L41.3177,7.327 L56.7637,5.677 C56.0377,12.575 54.2227,17.162 49.7337,20.331" id="Fill-5"></path>
                <path d="M67.8489,27.79 L66.3969,23.367 C76.6279,22.146 83.9889,16.833 87.9489,7.789 L91.4139,11.023 C87.1229,20.166 78.9709,26.271 67.8489,27.79 L67.8489,27.79 Z M75.0439,12.377 C72.7989,10.331 68.9049,7.756 65.4069,6.172 L68.1129,2.409 C71.6769,3.861 75.6709,6.403 78.0799,8.251 L75.0439,12.377 Z" id="Fill-7"></path>
                <path d="M112.3021,9.3407 C109.9251,7.8217 105.8991,5.6767 102.8291,4.5877 L104.8751,0.9567 C107.9451,2.0137 112.4991,4.0927 114.4801,5.2807 L112.3021,9.3407 Z M102.1691,28.2187 L100.9151,23.8617 C111.2121,22.8067 118.2761,17.4597 122.2031,8.3177 L125.8001,11.1887 C121.5751,20.3977 113.5891,26.8657 102.1691,28.2187 L102.1691,28.2187 Z M108.0771,16.8987 C105.7001,15.3477 101.6411,13.2017 98.6381,12.1787 L100.6511,8.5157 C103.7201,9.5377 108.2751,11.6177 110.2551,12.8387 L108.0771,16.8987 Z" id="Fill-9"></path>
                <path d="M142.6614,28.8466 L139.6574,15.5446 L133.6504,16.3376 L133.0574,12.4436 L138.8004,11.7496 L137.5134,6.0396 L141.6384,5.1816 L143.0244,11.2216 L156.8534,9.5376 C156.0284,15.8096 153.9164,19.6376 150.6484,22.4096 L147.5794,20.0676 C149.8564,18.2516 151.2424,16.2046 151.7374,13.9606 L143.8824,14.9846 L146.8524,27.9216 L142.6614,28.8466 Z" id="Fill-11"></path>
                <path d="M178.7308,27.7568 L178.7308,1.5188 L183.4178,1.5188 L183.4178,21.7828 C186.1568,21.0898 189.3258,18.4498 191.3378,14.6208 L193.6158,18.4828 C190.7108,23.0698 185.9588,26.7998 178.7308,27.7568 M165.6278,28.0218 L162.7228,24.6538 C168.5328,20.9578 169.8528,16.6348 169.8528,10.6608 L169.8528,1.5838 L174.4728,1.5838 L174.4728,10.6278 C174.4728,18.1858 172.2288,23.7968 165.6278,28.0218" id="Fill-13"></path>
            </g>
        </g>
    </g>
</svg>