<svg viewBox="0 0 44 24" xmlns="http://www.w3.org/2000/svg" data-di-res-id="81c90988-e269bca9" data-di-rand="1746623686403"><g fill="none"><rect fill="#000" opacity=".07957" width="43.63636" height="24" rx="6"></rect><path d="M37.0909 2.18182H6.54546c-2.40996 0-4.36363 1.95366-4.36363 4.36363v10.9091c0 2.40997 1.95367 4.36363 4.36363 4.36363h30.54546c2.40997 0 4.36364-1.95366 4.36364-4.36363V6.54545c0-2.40997-1.95367-4.36363-4.36364-4.36363Z" fill="#FFF"></path><path d="M16.64596 9.27273h-5.48613c-.01788 0-.03256.01745-.03256.03872V9.816c0 .02127.01468.03873.03302.03873h4.9959c.41044 0 .74292.396.74292.88418 0 .48764-.33248.88364-.74292.88364h-3.79622c-.68055 0-1.2327.65618-1.2327 1.46618v1.59982c0 .02181.01468.03872.03302.03872h.91397c.01789 0 .03302-.0169.03302-.03872v-1.59982c0-.48764.33248-.8831.74246-.8831h3.79622c.68055 0 1.2327-.65672 1.2327-1.46672s-.55215-1.46618-1.2327-1.46618Zm14.55698 2.35036h-4.11645c-.19476 0-.3524-.18764-.3524-.42V9.894c0-.02127.01467-.03927.03254-.03927h5.52878c.01787 0 .03299-.01746.03299-.03873v-.50455c0-.02181-.01512-.03872-.033-.03872h-6.50713c-.01833 0-.033.0169-.033.03872v2.01c0 .48764.3327.88419.74283.88419h4.20901c.44955 0 .82256.438.82073.97309-.00138.53454-.36569.96654-.81477.96654h-4.9248c-.01833 0-.033.01746-.033.03873v.50455c0 .02127.01467.03872.033.03872h5.41467c.7199 0 1.30372-.69436 1.30372-1.55236 0-.85691-.58381-1.55182-1.30372-1.55182ZM21.9277 9.27273c-.63146 0-1.14302.65618-1.14302 1.46618v2.52218c0 .48818-.30829.88418-.68887.88418h-2.18696c-.01659 0-.0302.01746-.0302.03873v.50455c0 .02127.01361.03872.0302.03872h2.6411c.63105 0 1.14303-.65618 1.14303-1.46618v-2.52218c0-.48818.30829-.88418.68887-.88418h2.21758c.01658 0 .03061-.01746.03061-.03873v-.50455c0-.02181-.0136-.03872-.03061-.03872H21.9277Z" fill="#000"></path></g></svg>