<svg xmlns="http://www.w3.org/2000/svg" viewBox="0 0 139 50" data-di-res-id="ee74e9ec-39dffd3" data-di-rand="1746623686409"><defs><linearGradient id="svg-def-58-a" x1="0%" x2="100.029%" y1="50.015%" y2="50.015%"><stop offset="0%" stop-color="#EF4123"></stop><stop offset="2%" stop-color="#EF4123"></stop><stop offset="6.8%" stop-color="#F04A23"></stop><stop offset="14.64%" stop-color="#F26122"></stop><stop offset="24.53%" stop-color="#F58020"></stop><stop offset="36.09%" stop-color="#FAA61A"></stop><stop offset="48.93%" stop-color="#FFD900"></stop><stop offset="50%" stop-color="#FD0"></stop><stop offset="51.07%" stop-color="#FFD900"></stop><stop offset="63.91%" stop-color="#FAA61A"></stop><stop offset="75.47%" stop-color="#F58020"></stop><stop offset="85.36%" stop-color="#F26122"></stop><stop offset="93.2%" stop-color="#F04A23"></stop><stop offset="98%" stop-color="#EF4123"></stop><stop offset="100%" stop-color="#EF4123"></stop></linearGradient><linearGradient id="svg-def-58-b" x1="133.916%" x2="1.991%" y1="49.956%" y2="49.956%"><stop offset="20%" stop-color="#FFDA00"></stop><stop offset="28.13%" stop-color="#FFCC03"></stop><stop offset="44.56%" stop-color="#FBA919"></stop><stop offset="67.5%" stop-color="#F37321"></stop><stop offset="90%" stop-color="#ED1C24"></stop></linearGradient><linearGradient id="svg-def-58-c" x1="-33.94%" x2="97.985%" y1="49.962%" y2="49.962%"><stop offset="20%" stop-color="#FFDA00"></stop><stop offset="28.13%" stop-color="#FFCC03"></stop><stop offset="44.56%" stop-color="#FBA919"></stop><stop offset="67.5%" stop-color="#F37321"></stop><stop offset="90%" stop-color="#ED1C24"></stop></linearGradient></defs><g fill="none" transform="translate(0 .172)"><polygon fill="url(#svg-def-58-a)" points="49.748 24.892 24.892 0 0 24.892 24.892 49.748"></polygon><polygon fill="url(#svg-def-58-b)" points="26.259 6.115 16.187 16.187 26.259 26.259"></polygon><polygon fill="url(#svg-def-58-c)" points="23.489 43.669 33.561 33.597 23.489 23.525"></polygon><g fill="#FFF" transform="translate(60.227 7.955)"><path d="M4.94084682 1.63000978C4.65442092 1.52370479 4.33219178 1.4528348 4.00996264 1.38196481 3.6877335 1.34652981 3.4013076 1.31109482 3.07907846 1.31109482 2.90006227 1.31109482 2.68524284 1.34652981 2.50622665 1.38196481 2.32721046 1.4173998 2.14819427 1.48826979 2.00498132 1.55913978 1.86176837 1.63000978 1.75435866 1.73631476 1.68275218 1.87805474 1.6111457 2.01979472 1.53953923 2.1969697 1.53953923 2.37414467 1.53953923 2.55131965 1.57534247 2.69305963 1.6111457 2.79936461 1.68275218 2.9056696 1.75435866 3.04740958 1.89757161 3.15371457 2.04078456 3.26001955 2.21980075 3.36632454 2.43462017 3.47262952 2.6494396 3.57893451 2.90006227 3.68523949 3.22229141 3.82697947 3.58032379 3.96871945 3.90255293 4.11045943 4.22478207 4.25219941 4.51120797 4.39393939 4.76183064 4.57111437 4.97665006 4.78372434 5.19146949 4.96089932 5.33468244 5.20894428 5.44209215 5.45698925 5.54950187 5.70503421 5.58530511 5.98851417 5.58530511 6.34286413 5.58530511 6.73264907 5.51369863 7.08699902 5.33468244 7.37047898 5.15566625 7.65395894 4.94084682 7.90200391 4.65442092 8.11461388 4.36799502 8.29178886 4.04576588 8.43352884 3.6877335 8.53983382 3.32970112 8.64613881 2.97166874 8.6815738 2.57783313 8.6815738 2.18399751 8.6815738 1.79016189 8.64613881 1.3247198 8.57526882.859277709 8.50439883.429638854 8.39809384.0358032379 8.22091887L.322229141 7.12243402C.716064757 7.29960899 1.10990037 7.40591398 1.50373599 7.47678397 1.89757161 7.54765396 2.25560399 7.58308895 2.57783313 7.58308895 3.07907846 7.58308895 3.47291407 7.47678397 3.75933998 7.29960899 4.04576588 7.12243402 4.18897883 6.80351906 4.18897883 6.44916911 4.18897883 6.27199413 4.15317559 6.13025415 4.08156912 5.98851417 4.00996264 5.84677419 3.90255293 5.70503421 3.72353674 5.59872923 3.58032379 5.49242424 3.36550436 5.35068426 3.15068493 5.24437928 2.9358655 5.13807429 2.6494396 5.03176931 2.3630137 4.89002933 2.00498132 4.74828935 1.68275218 4.60654936 1.43212951 4.46480938 1.14570361 4.3230694.930884184 4.14589443.751867995 3.93328446.572851806 3.75610948.429638854 3.54349951.322229141 3.29545455.214819427 3.04740958.179016189 2.79936461.179016189 2.51588465.179016189 2.12609971.250622665 1.80718475.429638854 1.52370479.608655044 1.24022483.823474471.992179863 1.07409714.815004888 1.36052304.637829912 1.64694894.496089932 1.96917808.389784946 2.29140722.318914956 2.6494396.248044966 3.00747198.248044966 3.4013076.248044966 3.79514321.283479961 4.15317559.318914956 4.51120797.389784946 4.86924035.460654936 5.15566625.566959922L4.94084682 1.63000978ZM12.8175592 5.49242424C12.8175592 5.98851417 12.7459527 6.44916911 12.6027397 6.83895406 12.4595268 7.228739 12.2447073 7.54765396 11.9940847 7.83113392 11.743462 8.11461388 11.4212329 8.32722385 11.0273973 8.46896383 10.6693649 8.61070381 10.239726 8.6815738 9.77428394 8.6815738 9.30884184 8.6815738 8.87920299 8.61070381 8.52117061 8.46896383 8.16313823 8.32722385 7.84090909 8.11461388 7.55448319 7.83113392 7.30386052 7.54765396 7.0890411 7.228739 6.94582814 6.83895406 6.80261519 6.44916911 6.73100872 6.02394917 6.73100872 5.49242424 6.73100872 4.99633431 6.80261519 4.57111437 6.94582814 4.18132942 7.0890411 3.79154448 7.30386052 3.47262952 7.55448319 3.18914956 7.80510585 2.9056696 8.12733499 2.72849462 8.52117061 2.58675464 8.87920299 2.44501466 9.30884184 2.37414467 9.77428394 2.37414467 10.239726 2.37414467 10.6693649 2.44501466 11.0273973 2.58675464 11.3854296 2.72849462 11.7076588 2.94110459 11.9940847 3.18914956 12.2447073 3.47262952 12.4595268 3.79154448 12.6027397 4.18132942 12.7459527 4.57111437 12.8175592 4.99633431 12.8175592 5.49242424ZM11.4928394 5.49242424C11.4928394 5.17350929 11.4570361 4.89002933 11.3854296 4.64198436 11.3138232 4.39393939 11.2064134 4.14589443 11.0632005 3.96871945 10.9199875 3.79154448 10.7409714 3.6143695 10.5261519 3.50806452 10.3113325 3.40175953 10.0607098 3.33088954 9.77428394 3.33088954 9.48785803 3.33088954 9.23723537 3.40175953 9.02241594 3.50806452 8.80759651 3.6143695 8.62858032 3.75610948 8.48536737 3.96871945 8.34215442 4.18132942 8.23474471 4.39393939 8.16313823 4.64198436 8.09153176 4.89002933 8.05572852 5.17350929 8.05572852 5.49242424 8.05572852 6.13025415 8.19894147 6.66177908 8.48536737 7.05156403 8.77179328 7.44134897 9.20143213 7.65395894 9.7384807 7.65395894 10.3113325 7.65395894 10.7409714 7.44134897 11.0273973 7.05156403 11.3496264 6.66177908 11.4928394 6.13025415 11.4928394 5.49242424ZM15.3953923 2.48044966 15.3953923 3.33088954 15.4311955 3.33088954C15.6102117 3.01197458 15.8608344 2.76392962 16.2188667 2.58675464 16.5768991 2.40957967 16.9349315 2.33870968 17.3645704 2.33870968 18.0448319 2.33870968 18.6176837 2.55131965 19.0115193 2.94110459 19.4053549 3.33088954 19.6201743 3.86241447 19.6201743 4.53567937L19.6201743 8.50439883 18.2596513 8.50439883 18.2596513 4.99633431C18.2596513 4.74828935 18.2238481 4.50024438 18.1880448 4.28763441 18.1522416 4.07502444 18.0806351 3.89784946 17.9732254 3.75610948 17.8658157 3.6143695 17.7226027 3.50806452 17.5793898 3.43719453 17.4003736 3.36632454 17.1855542 3.33088954 16.9349315 3.33088954 16.7559153 3.33088954 16.5768991 3.36632454 16.3620797 3.43719453 16.1830635 3.50806452 16.0040473 3.6143695 15.8608344 3.75610948 15.7176214 3.89784946 15.6102117 4.07502444 15.502802 4.3230694 15.3953923 4.57111437 15.359589 4.85459433 15.359589 5.17350929L15.359589 8.50439883 13.999066 8.50439883 13.999066 2.48044966 15.3953923 2.48044966Z"></path><polygon points="23.594 6.945 23.594 6.945 25.277 2.48 26.709 2.48 23.308 10.772 21.876 10.772 22.878 8.398 20.444 2.48 21.912 2.48"></polygon><polygon points=".573 12.402 1.969 12.402 1.969 20.588 .573 20.588"></polygon><path d="M5.0124533 14.528348 5.0124533 15.3787879 5.04825654 15.3787879C5.22727273 15.0598729 5.47789539 14.811828 5.83592777 14.634653 6.19396015 14.457478 6.55199253 14.386608 6.98163138 14.386608 7.6618929 14.386608 8.23474471 14.599218 8.62858032 14.9890029 9.02241594 15.3787879 9.23723537 15.9103128 9.23723537 16.5835777L9.23723537 20.5522972 7.87671233 20.5522972 7.87671233 17.0442326C7.87671233 16.7961877 7.84090909 16.5481427 7.80510585 16.3355327 7.76930262 16.1229228 7.69769614 15.9457478 7.59028643 15.8040078 7.48287671 15.6622678 7.33966376 15.5559629 7.19645081 15.4850929 7.01743462 15.4142229 6.80261519 15.3787879 6.55199253 15.3787879 6.37297634 15.3787879 6.19396015 15.4142229 5.97914072 15.4850929 5.80012453 15.5559629 5.62110834 15.6622678 5.47789539 15.8040078 5.33468244 15.9457478 5.22727273 16.1229228 5.11986301 16.3709677 5.0124533 16.6190127 4.97665006 16.9024927 4.97665006 17.2214076L4.97665006 20.5522972 3.61612702 20.5522972 3.61612702 14.528348 5.0124533 14.528348ZM10.2755293 14.528348 11.3138232 14.528348 11.3138232 12.9692082 12.6743462 12.9692082 12.6743462 14.528348 14.0348692 14.528348 14.0348692 15.5205279 12.6743462 15.5205279 12.6743462 18.6742424C12.6743462 18.8868524 12.6743462 19.0640274 12.7101494 19.1703324 12.7101494 19.3120723 12.7459527 19.3829423 12.8175592 19.4538123 12.8891656 19.5246823 12.9607721 19.5601173 13.0323786 19.5955523 13.1397883 19.6309873 13.247198 19.6309873 13.4262142 19.6309873 13.5336239 19.6309873 13.6410336 19.6309873 13.7484433 19.6309873 13.8558531 19.6309873 13.9274595 19.5955523 14.0348692 19.5955523L14.0348692 20.5522972C13.8916563 20.5522972 13.7484433 20.5877322 13.5694271 20.5877322 13.390411 20.5877322 13.2113948 20.6231672 13.0323786 20.6231672 12.6743462 20.6231672 12.3879203 20.5877322 12.1731009 20.5168622 11.9582814 20.4459922 11.7792653 20.3396872 11.6718555 20.1625122 11.5644458 20.0207722 11.4570361 19.8435973 11.4212329 19.6309873 11.3854296 19.4183773 11.3496264 19.1703324 11.3496264 18.8868524L11.3496264 15.4850929 10.3113325 15.4850929 10.3113325 14.528348 10.2755293 14.528348ZM16.1472603 17.9301075C16.1830635 18.4970674 16.3978829 18.9577224 16.7917186 19.2412023 17.1855542 19.5601173 17.6867995 19.7018573 18.2954545 19.7018573 18.5460772 19.7018573 18.8325031 19.6664223 19.118929 19.6309873 19.4053549 19.5955523 19.6559776 19.5246823 19.9066002 19.4538123L20.0856164 20.4105572C19.5485679 20.5877322 18.9041096 20.6940371 18.2238481 20.6940371 17.6867995 20.6940371 17.2213574 20.6231672 16.7917186 20.4459922 16.3620797 20.3042522 16.0398506 20.0562072 15.7534247 19.8081623 15.4669988 19.5246823 15.2521793 19.2057674 15.1089664 18.8159824 14.9657534 18.4261975 14.8941469 18.0009775 14.8941469 17.5403226 14.8941469 17.0796676 14.9657534 16.6544477 15.1089664 16.2646628 15.2521793 15.8748778 15.4311955 15.5559629 15.7176214 15.2724829 15.9682441 14.9890029 16.2904732 14.776393 16.6485056 14.599218 17.006538 14.457478 17.4361768 14.351173 17.8658157 14.351173 18.3312578 14.351173 18.6892902 14.422043 19.0473225 14.563783 19.3695517 14.705523 19.6559776 14.9181329 19.9066002 15.1661779 20.1214197 15.4142229 20.3004359 15.7331378 20.4078456 16.0874878 20.5152553 16.4418377 20.5868618 16.8670577 20.5868618 17.3277126L20.5868618 17.8946725 16.1472603 17.8946725 16.1472603 17.9301075ZM17.7942092 15.3433529C17.3287671 15.3433529 16.9349315 15.4850929 16.6485056 15.8040078 16.3620797 16.1229228 16.1830635 16.5127077 16.1472603 16.9733627L19.262142 16.9733627 19.262142 16.9379277C19.262142 16.4418377 19.1547323 16.0520528 18.8683064 15.7685728 18.6176837 15.4850929 18.2596513 15.3433529 17.7942092 15.3433529ZM25.0980697 15.4496579C24.9548568 15.4142229 24.8116438 15.4142229 24.5968244 15.4142229 24.4178082 15.4142229 24.238792 15.4496579 24.0239726 15.5205279 23.8091532 15.5913978 23.6659402 15.6977028 23.5227273 15.8748778 23.3795143 16.0166178 23.2721046 16.2292278 23.2004981 16.4772727 23.1288917 16.7253177 23.0930884 17.0442326 23.0930884 17.3985826L23.0930884 20.6231672 21.7325654 20.6231672 21.7325654 14.528348 23.0572852 14.528348 23.0572852 15.3433529 23.0930884 15.3433529C23.3795143 14.705523 23.9165629 14.386608 24.7400374 14.386608 24.8116438 14.386608 24.8832503 14.386608 24.9548568 14.386608 25.0264633 14.386608 25.0980697 14.386608 25.2054795 14.386608L25.0980697 15.4496579ZM29.4302615 16.6544477C29.4302615 16.2646628 29.3228518 15.9457478 29.0722291 15.7331378 28.8216065 15.5205279 28.4635741 15.4142229 27.9623288 15.4142229 27.7475093 15.4142229 27.4968867 15.4496579 27.2104608 15.4850929 26.9240349 15.5559629 26.637609 15.6268328 26.3869863 15.7331378L26.1005604 14.776393C26.3153798 14.705523 26.6018057 14.599218 26.9956413 14.528348 27.389477 14.457478 27.7475093 14.422043 28.0697385 14.422043 28.9648194 14.422043 29.6450809 14.599218 30.0747198 14.9890029 30.5401619 15.3787879 30.7549813 15.9103128 30.7549813 16.6544477L30.7549813 19.2057674C30.7549813 19.4183773 30.7549813 19.6664223 30.7907846 19.9144673 30.7907846 20.1625122 30.8265878 20.3751222 30.862391 20.5877322L29.6808842 20.5877322C29.6450809 20.4814272 29.6092777 20.3396872 29.6092777 20.1979472 29.5734745 20.0562072 29.5734745 19.9144673 29.5376712 19.7727273L29.501868 19.7727273C29.358655 20.0562072 29.1080324 20.2688172 28.7858032 20.4814272 28.4635741 20.6586022 28.0697385 20.7649071 27.6042964 20.7649071 27.3536737 20.7649071 27.0672478 20.7294721 26.8166252 20.6586022 26.5660025 20.5877322 26.3153798 20.4814272 26.1363636 20.3396872 25.9215442 20.1979472 25.7783313 19.9853372 25.6351183 19.7727273 25.4919054 19.5246823 25.4561021 19.2412023 25.4561021 18.9222874 25.4561021 18.4970674 25.5635118 18.1427175 25.7783313 17.8592375 25.9931507 17.5757576 26.2795766 17.3631476 26.637609 17.2214076 26.9956413 17.0796676 27.4252802 16.9733627 27.8907223 16.9024927 28.3561644 16.8316227 28.8574097 16.8316227 29.3944583 16.8316227L29.3944583 16.6544477 29.4302615 16.6544477ZM29.1796389 17.6466276C28.8574097 17.6466276 28.5709838 17.6466276 28.2845579 17.6820626 27.998132 17.7174976 27.7475093 17.7883675 27.5326899 17.8592375 27.3178705 17.9301075 27.1388543 18.0718475 26.9956413 18.2135875 26.8524284 18.3553275 26.8166252 18.5679374 26.8166252 18.7805474 26.8166252 19.0640274 26.8882316 19.3120723 27.0672478 19.4892473 27.246264 19.6664223 27.4968867 19.7372923 27.8549191 19.7372923 28.141345 19.7372923 28.3561644 19.7018573 28.5709838 19.5955523 28.7858032 19.4892473 28.9648194 19.3829423 29.0722291 19.2412023 29.2154421 19.0994624 29.2870486 18.9222874 29.358655 18.7096774 29.4302615 18.5325024 29.4660648 18.3198925 29.4660648 18.1072825L29.4660648 17.6466276 29.1796389 17.6466276 29.1796389 17.6466276ZM36.4118929 15.6268328C36.2328767 15.5559629 36.0538605 15.4850929 35.8390411 15.4496579 35.6600249 15.4142229 35.4452055 15.4142229 35.2661893 15.4142229 34.9439601 15.4142229 34.6575342 15.4850929 34.4069116 15.5913978 34.1562889 15.6977028 33.9414695 15.8748778 33.7982565 16.0520528 33.6192403 16.2292278 33.5118306 16.4772727 33.4044209 16.7607527 33.3328144 17.0442326 33.261208 17.3277126 33.261208 17.6111926 33.261208 17.8946725 33.2970112 18.1781525 33.4044209 18.4616325 33.4760274 18.7096774 33.6192403 18.9577224 33.7982565 19.1348974 33.9772727 19.3475073 34.1920922 19.4892473 34.4427148 19.5955523 34.6933375 19.7018573 34.9797634 19.7727273 35.3019925 19.7727273 35.4810087 19.7727273 35.6958281 19.7727273 35.8748443 19.7372923 36.0538605 19.7018573 36.2328767 19.6664223 36.4476961 19.5601173L36.6625156 20.5522972C36.4118929 20.6231672 36.1970735 20.6940371 35.9464508 20.7294721 35.6958281 20.7649071 35.4810087 20.7649071 35.2303861 20.7649071 34.6933375 20.7649071 34.2278954 20.6940371 33.7982565 20.5168622 33.3686177 20.3396872 33.0463885 20.1270772 32.7599626 19.8435973 32.4735367 19.5601173 32.2945205 19.2412023 32.1513076 18.8514174 32.0080946 18.4616325 31.9364882 18.0364125 31.9364882 17.6111926 31.9364882 17.1505376 32.0080946 16.7253177 32.1513076 16.3355327 32.2945205 15.9457478 32.50934 15.6268328 32.7957659 15.3433529 33.0821918 15.0598729 33.4044209 14.847263 33.8340598 14.670088 34.2278954 14.492913 34.6933375 14.422043 35.1945828 14.422043 35.7674346 14.422043 36.2328767 14.492913 36.6267123 14.634653L36.4118929 15.6268328ZM37.3785803 14.528348 38.4168742 14.528348 38.4168742 12.9692082 39.7773973 12.9692082 39.7773973 14.528348 41.1379203 14.528348 41.1379203 15.5205279 39.7773973 15.5205279 39.7773973 18.6742424C39.7773973 18.8868524 39.7773973 19.0640274 39.8132005 19.1703324 39.8132005 19.3120723 39.8490037 19.3829423 39.9206102 19.4538123 39.9922167 19.5246823 40.0638232 19.5601173 40.1354296 19.5955523 40.2428394 19.6309873 40.3502491 19.6309873 40.5292653 19.6309873 40.636675 19.6309873 40.7440847 19.6309873 40.8514944 19.6309873 40.9589041 19.6309873 41.0305106 19.5955523 41.1379203 19.5955523L41.1379203 20.5522972C40.9947073 20.5522972 40.8514944 20.5877322 40.6724782 20.5877322 40.493462 20.5877322 40.3144458 20.6231672 40.1354296 20.6231672 39.7773973 20.6231672 39.4909714 20.5877322 39.2761519 20.5168622 39.0613325 20.4459922 38.8823163 20.3396872 38.7749066 20.1625122 38.6674969 20.0207722 38.5600872 19.8435973 38.5242839 19.6309873 38.4884807 19.4183773 38.4526775 19.1703324 38.4526775 18.8868524L38.4526775 15.4850929 37.4143836 15.4850929 37.4143836 14.528348 37.3785803 14.528348ZM43.7515567 12.2250733 43.7515567 13.4298631 42.3552304 13.4298631 42.3552304 12.2250733 43.7515567 12.2250733ZM43.7157534 14.528348 43.7157534 20.5877322 42.3552304 20.5877322 42.3552304 14.528348 43.7157534 14.528348Z"></path><polygon points="47.797 19.418 47.797 19.418 49.48 14.528 50.912 14.528 48.585 20.588 47.01 20.588 44.682 14.528 46.15 14.528"></polygon><path d="M52.5949564,17.9301075 C52.6307597,18.4970674 52.8455791,18.9577224 53.2394147,19.2412023 C53.6332503,19.5601173 54.1344956,19.7018573 54.7431507,19.7018573 C54.9937733,19.7018573 55.2801993,19.6664223 55.5666252,19.6309873 C55.8530511,19.5955523 56.1036737,19.5246823 56.3542964,19.4538123 L56.5333126,20.4105572 C55.996264,20.5877322 55.3518057,20.6940371 54.6715442,20.6940371 C54.1344956,20.6940371 53.6690535,20.6231672 53.2394147,20.4459922 C52.8097758,20.3042522 52.4875467,20.0562072 52.2011208,19.8081623 C51.9146949,19.5246823 51.6998755,19.2057674 51.5566625,18.8159824 C51.4134496,18.4261975 51.3418431,18.0009775 51.3418431,17.5403226 C51.3418431,17.0796676 51.4134496,16.6544477 51.5566625,16.2646628 C51.6998755,15.8748778 51.8788917,15.5559629 52.1653176,15.2724829 C52.4159402,14.9890029 52.7381694,14.776393 53.0962017,14.599218 C53.4542341,14.457478 53.883873,14.351173 54.3135118,14.351173 C54.7789539,14.351173 55.1369863,14.422043 55.4950187,14.563783 C55.8172478,14.705523 56.1036737,14.9181329 56.3542964,15.1661779 C56.5691158,15.4142229 56.748132,15.7331378 56.8555417,16.0874878 C56.9629514,16.4418377 57.0345579,16.8670577 57.0345579,17.3277126 L57.0345579,17.8946725 L52.5949564,17.8946725 L52.5949564,17.9301075 Z M54.2777086,15.3433529 C53.8122665,15.3433529 53.4184309,15.4850929 53.132005,15.8040078 C52.8455791,16.1229228 52.6665629,16.5127077 52.6307597,16.9733627 L55.7456413,16.9733627 L55.7456413,16.9379277 C55.7456413,16.4418377 55.6382316,16.0520528 55.3518057,15.7685728 C55.0653798,15.4850929 54.7073474,15.3433529 54.2777086,15.3433529 Z"></path><polygon points=".573 24.486 5.442 24.486 5.442 25.584 1.969 25.584 1.969 27.923 5.156 27.923 5.156 29.021 1.969 29.021 1.969 31.573 5.55 31.573 5.55 32.671 .573 32.671"></polygon><path d="M8.30635118 26.6116813 8.30635118 27.4621212 8.34215442 27.4621212C8.52117061 27.1432063 8.77179328 26.8951613 9.12982565 26.7179863 9.48785803 26.5408113 9.84589041 26.4699413 10.2755293 26.4699413 10.9557908 26.4699413 11.5286426 26.6825513 11.9224782 27.0723363 12.3163138 27.4621212 12.5311333 27.9936461 12.5311333 28.666911L12.5311333 32.6356305 11.1706102 32.6356305 11.1706102 29.127566C11.1706102 28.879521 11.134807 28.6314761 11.0990037 28.4188661 11.0632005 28.2062561 10.991594 28.0290811 10.8841843 27.8873412 10.7767746 27.7456012 10.6335616 27.6392962 10.4903487 27.5684262 10.3113325 27.4975562 10.0965131 27.4621212 9.84589041 27.4621212 9.66687422 27.4621212 9.48785803 27.4975562 9.27303861 27.5684262 9.09402242 27.6392962 8.91500623 27.7456012 8.77179328 27.8873412 8.62858032 28.0290811 8.52117061 28.2062561 8.4137609 28.4543011 8.30635118 28.702346 8.27054795 28.985826 8.27054795 29.304741L8.27054795 32.6356305 6.91002491 32.6356305 6.91002491 26.6116813 8.30635118 26.6116813ZM13.5336239 26.6116813 14.5719178 26.6116813 14.5719178 25.0525415 15.9324408 25.0525415 15.9324408 26.6116813 17.2929639 26.6116813 17.2929639 27.6038612 15.9324408 27.6038612 15.9324408 30.7575758C15.9324408 30.9701857 15.9324408 31.1473607 15.9682441 31.2536657 15.9682441 31.3954057 16.0040473 31.4662757 16.0756538 31.5371457 16.1472603 31.6080156 16.2188667 31.6434506 16.2904732 31.6788856 16.3978829 31.7143206 16.5052927 31.7143206 16.6843088 31.7143206 16.7917186 31.7143206 16.8991283 31.7143206 17.006538 31.7143206 17.1139477 31.7143206 17.1855542 31.6788856 17.2929639 31.6788856L17.2929639 32.6356305C17.1497509 32.6356305 17.006538 32.6710655 16.8275218 32.6710655 16.6485056 32.6710655 16.4694894 32.7065005 16.2904732 32.7065005 15.9324408 32.7065005 15.6460149 32.6710655 15.4311955 32.6001955 15.2163761 32.5293255 15.0373599 32.4230205 14.9299502 32.2458456 14.8225405 32.1041056 14.7151308 31.9269306 14.6793275 31.7143206 14.6435243 31.5017107 14.607721 31.2536657 14.607721 30.9701857L14.607721 27.5684262 13.5694271 27.5684262 13.5694271 26.6116813 13.5336239 26.6116813ZM19.4411582 30.0134409C19.4769614 30.5804008 19.6917808 31.0410557 20.0856164 31.3245357 20.4794521 31.6434506 20.9806974 31.7851906 21.5893524 31.7851906 21.8399751 31.7851906 22.126401 31.7497556 22.4128269 31.7143206 22.6992528 31.6788856 22.9498755 31.6080156 23.2004981 31.5371457L23.3795143 32.4938905C22.8424658 32.6710655 22.1980075 32.7773705 21.517746 32.7773705 20.9806974 32.7773705 20.5152553 32.7065005 20.0856164 32.5293255 19.6559776 32.3875855 19.3337484 32.1395406 19.0473225 31.8914956 18.7608966 31.6080156 18.5460772 31.2891007 18.4028643 30.8993157 18.2596513 30.5095308 18.1880448 30.0843109 18.1880448 29.6236559 18.1880448 29.163001 18.2596513 28.737781 18.4028643 28.3479961 18.5460772 27.9582111 18.7250934 27.6392962 19.0115193 27.3558162 19.262142 27.0723363 19.5843711 26.8597263 19.9424035 26.6825513 20.3004359 26.5408113 20.7300747 26.4345064 21.1597136 26.4345064 21.6251557 26.4345064 21.983188 26.5053763 22.3412204 26.6471163 22.6634496 26.7888563 22.9498755 27.0014663 23.2004981 27.2495112 23.4153176 27.4975562 23.5943337 27.8164712 23.7017435 28.1708211 23.8091532 28.5251711 23.8807597 28.950391 23.8807597 29.4110459L23.8807597 29.9780059 19.4411582 29.9780059 19.4411582 30.0134409ZM21.0881071 27.3912512C20.622665 27.3912512 20.2288294 27.5329912 19.9424035 27.8519062 19.6559776 28.1708211 19.4769614 28.5606061 19.4411582 29.021261L22.5560399 29.021261 22.5560399 28.985826C22.5560399 28.4897361 22.4486301 28.0999511 22.1622042 27.8164712 21.8757783 27.5684262 21.517746 27.3912512 21.0881071 27.3912512ZM28.3919676 27.4975562C28.2487547 27.4621212 28.1055417 27.4621212 27.8907223 27.4621212 27.7117061 27.4621212 27.5326899 27.4975562 27.3178705 27.5684262 27.1030511 27.6392962 26.9598381 27.7456012 26.8166252 27.9227761 26.6734122 28.0645161 26.5660025 28.2771261 26.494396 28.5251711 26.4227895 28.773216 26.3869863 29.092131 26.3869863 29.4464809L26.3869863 32.6710655 25.0264633 32.6710655 25.0264633 26.6116813 26.3511831 26.6116813 26.3511831 27.4266862 26.3869863 27.4266862C26.6734122 26.7888563 27.2104608 26.4699413 28.0339352 26.4699413 28.1055417 26.4699413 28.1771482 26.4699413 28.2487547 26.4699413 28.3203611 26.4699413 28.3919676 26.4699413 28.4993773 26.4699413L28.3919676 27.4975562ZM28.9648194 26.6116813 30.0031133 26.6116813 30.0031133 25.0525415 31.3636364 25.0525415 31.3636364 26.6116813 32.7241594 26.6116813 32.7241594 27.6038612 31.3636364 27.6038612 31.3636364 30.7575758C31.3636364 30.9701857 31.3636364 31.1473607 31.3994396 31.2536657 31.3994396 31.3954057 31.4352428 31.4662757 31.5068493 31.5371457 31.5784558 31.6080156 31.6500623 31.6434506 31.7216687 31.6788856 31.8290785 31.7143206 31.9364882 31.7143206 32.1155044 31.7143206 32.2229141 31.7143206 32.3303238 31.7143206 32.4377335 31.7143206 32.5451432 31.7143206 32.6167497 31.6788856 32.7241594 31.6788856L32.7241594 32.6356305C32.5809465 32.6356305 32.4377335 32.6710655 32.2587173 32.6710655 32.0797011 32.6710655 31.9006849 32.7065005 31.7216687 32.7065005 31.3636364 32.7065005 31.0772105 32.6710655 30.862391 32.6001955 30.6475716 32.5293255 30.4685554 32.4230205 30.3611457 32.2458456 30.253736 32.1041056 30.1463263 31.9269306 30.110523 31.7143206 30.0747198 31.5017107 30.0389166 31.2536657 30.0389166 30.9701857L30.0389166 27.5684262 29.0006227 27.5684262 29.0006227 26.6116813 28.9648194 26.6116813ZM37.48599 28.702346C37.48599 28.3125611 37.3785803 27.9936461 37.1279577 27.7810362 36.877335 27.5684262 36.5193026 27.4621212 36.0180573 27.4621212 35.8032379 27.4621212 35.5526152 27.4975562 35.2661893 27.5329912 34.9797634 27.6038612 34.6933375 27.6747312 34.4427148 27.7810362L34.1562889 26.8242913C34.3711083 26.7534213 34.6575342 26.6471163 35.0513699 26.5762463 35.4452055 26.5053763 35.8032379 26.4699413 36.125467 26.4699413 37.0205479 26.4699413 37.7008095 26.6471163 38.1304483 27.0369013 38.5958904 27.4266862 38.8107098 27.9582111 38.8107098 28.702346L38.8107098 31.2536657C38.8107098 31.4662757 38.8107098 31.7143206 38.8465131 31.9623656 38.8465131 32.2104106 38.8823163 32.4230205 38.9181196 32.6356305L37.7366127 32.6356305C37.7008095 32.5293255 37.6650062 32.3875855 37.6650062 32.2458456 37.629203 32.1041056 37.629203 31.9623656 37.5933998 31.8206256L37.5933998 31.8206256C37.4501868 32.1041056 37.1995641 32.3167155 36.877335 32.5293255 36.5551059 32.7065005 36.1612702 32.8128055 35.6958281 32.8128055 35.4452055 32.8128055 35.1587796 32.7773705 34.9081569 32.7065005 34.6575342 32.6356305 34.4069116 32.5293255 34.2278954 32.3875855 34.013076 32.2458456 33.869863 32.0332356 33.7266501 31.8206256 33.5834371 31.5725806 33.5476339 31.2891007 33.5476339 30.9701857 33.5476339 30.5449658 33.6550436 30.1906158 33.869863 29.9071359 34.0846824 29.6236559 34.3711083 29.4110459 34.7291407 29.269306 35.0871731 29.127566 35.516812 29.021261 35.982254 28.950391 36.4476961 28.879521 36.9489415 28.879521 37.48599 28.879521L37.48599 28.702346ZM37.2353674 29.7299609C36.9131382 29.7299609 36.6267123 29.7299609 36.3402864 29.7653959 36.0538605 29.8008309 35.8032379 29.8717009 35.5884184 29.9425709 35.373599 30.0134409 35.1945828 30.1551808 35.0513699 30.2969208 34.9081569 30.4386608 34.8723537 30.6512708 34.8723537 30.8638807 34.8723537 31.1473607 34.9439601 31.3954057 35.1229763 31.5725806 35.3019925 31.7497556 35.5526152 31.8206256 35.9106476 31.8206256 36.1970735 31.8206256 36.4118929 31.7851906 36.6267123 31.6788856 36.8415318 31.5725806 37.0205479 31.4662757 37.1279577 31.3245357 37.2711706 31.1827957 37.3427771 31.0056207 37.4143836 30.7930108 37.48599 30.6158358 37.5217933 30.4032258 37.5217933 30.1906158L37.5217933 29.7299609 37.2353674 29.7299609 37.2353674 29.7299609ZM41.8897883 24.3084066 41.8897883 25.5131965 40.493462 25.5131965 40.493462 24.3084066 41.8897883 24.3084066ZM41.8539851 26.6116813 41.8539851 32.6710655 40.493462 32.6710655 40.493462 26.6116813 41.8539851 26.6116813ZM44.9688667 26.6116813 44.9688667 27.4621212 45.00467 27.4621212C45.1836862 27.1432063 45.4343088 26.8951613 45.7923412 26.7179863 46.1503736 26.5408113 46.508406 26.4699413 46.9380448 26.4699413 47.6183064 26.4699413 48.1911582 26.6825513 48.5849938 27.0723363 48.9788294 27.4621212 49.1936488 27.9936461 49.1936488 28.666911L49.1936488 32.6356305 47.8331258 32.6356305 47.8331258 29.127566C47.8331258 28.879521 47.7973225 28.6314761 47.7615193 28.4188661 47.7257161 28.2062561 47.6541096 28.0290811 47.5466999 27.8873412 47.4392902 27.7456012 47.2960772 27.6392962 47.1528643 27.5684262 46.9738481 27.4975562 46.7590286 27.4621212 46.508406 27.4621212 46.3293898 27.4621212 46.1503736 27.4975562 45.9355542 27.5684262 45.756538 27.6392962 45.5775218 27.7456012 45.4343088 27.8873412 45.2910959 28.0290811 45.1836862 28.2062561 45.0762765 28.4543011 44.9688667 28.702346 44.9330635 28.985826 44.9330635 29.304741L44.9330635 32.6356305 43.5725405 32.6356305 43.5725405 26.6116813 44.9688667 26.6116813ZM52.0221046 26.6116813 52.0221046 27.4975562 52.0579078 27.4975562C52.2011208 27.1786413 52.4517435 26.9305963 52.8097758 26.7534213 53.132005 26.5762463 53.5258406 26.5053763 53.883873 26.5053763 54.8147572 26.5053763 55.4234122 26.8242913 55.7098381 27.4975562L55.7456413 27.4975562C55.9604608 27.1432063 56.2468867 26.8951613 56.6049191 26.7534213 56.9629514 26.6116813 57.3209838 26.5053763 57.7148194 26.5408113 58.108655 26.5408113 58.4308842 26.6116813 58.7173101 26.7179863 59.003736 26.8242913 59.2185554 26.9660313 59.4333748 27.1786413 59.612391 27.3558162 59.755604 27.6038612 59.8630137 27.8873412 59.9704234 28.1708211 60.0062267 28.4543011 60.0062267 28.773216L60.0062267 32.7419355 58.6457036 32.7419355 58.6457036 29.233871C58.6457036 28.914956 58.6457036 28.666911 58.6099004 28.4897361 58.5740971 28.3125611 58.5024907 28.1353861 58.4308842 27.9936461 58.3234745 27.8519062 58.2160648 27.7101662 58.0370486 27.6392962 57.8580324 27.5684262 57.6790162 27.5329912 57.4283935 27.5329912 57.2493773 27.5329912 57.1061644 27.5684262 56.9271482 27.6038612 56.748132 27.6747312 56.6049191 27.7456012 56.4975093 27.8519062 56.3542964 27.9582111 56.2826899 28.1353861 56.1752802 28.3125611 56.1036737 28.4897361 56.0678705 28.737781 56.0678705 28.985826L56.0678705 32.6710655 54.7073474 32.6710655 54.7073474 29.092131C54.7073474 28.844086 54.7073474 28.5960411 54.6715442 28.4188661 54.635741 28.2062561 54.5641345 28.0290811 54.492528 27.8873412 54.4209215 27.7456012 54.2777086 27.6392962 54.1344956 27.5684262 53.9554795 27.4975562 53.7764633 27.4621212 53.5258406 27.4621212 53.3468244 27.4621212 53.1678082 27.4975562 52.988792 27.5684262 52.8097758 27.6392962 52.6665629 27.7456012 52.5233499 27.8873412 52.380137 28.0290811 52.3085305 28.2062561 52.2011208 28.4188661 52.1295143 28.6314761 52.0937111 28.914956 52.0937111 29.233871L52.0937111 32.6356305 50.733188 32.6356305 50.733188 26.6116813 52.0221046 26.6116813ZM62.4766501 30.0134409C62.5124533 30.5804008 62.7272727 31.0410557 63.1211083 31.3245357 63.514944 31.6434506 64.0161893 31.7851906 64.6248443 31.7851906 64.875467 31.7851906 65.1618929 31.7497556 65.4483188 31.7143206 65.7347447 31.6788856 65.9853674 31.6080156 66.23599 31.5371457L66.4150062 32.4938905C65.8779577 32.6710655 65.2334994 32.7773705 64.5532379 32.7773705 64.0161893 32.7773705 63.5507472 32.7065005 63.1211083 32.5293255 62.6914695 32.3875855 62.3692403 32.1395406 62.0828144 31.8914956 61.7963885 31.6080156 61.5815691 31.2891007 61.4383562 30.8993157 61.2951432 30.5095308 61.2235367 30.0843109 61.2235367 29.6236559 61.2235367 29.163001 61.2951432 28.737781 61.4383562 28.3479961 61.5815691 27.9582111 61.7605853 27.6392962 62.0470112 27.3558162 62.2976339 27.0723363 62.619863 26.8597263 62.9778954 26.6825513 63.3359278 26.5408113 63.7655666 26.4345064 64.1952055 26.4345064 64.6606476 26.4345064 65.01868 26.5053763 65.3767123 26.6471163 65.6989415 26.7888563 65.9853674 27.0014663 66.23599 27.2495112 66.4508095 27.4975562 66.6298257 27.8164712 66.7372354 28.1708211 66.8446451 28.5251711 66.9162516 28.950391 66.9162516 29.4110459L66.9162516 29.9780059 62.4766501 29.9780059 62.4766501 30.0134409ZM64.123599 27.3912512C63.6581569 27.3912512 63.2643213 27.5329912 62.9778954 27.8519062 62.6914695 28.1708211 62.5124533 28.5606061 62.4766501 29.021261L65.5915318 29.021261 65.5915318 28.985826C65.5915318 28.4897361 65.484122 28.0999511 65.1976961 27.8164712 64.9112702 27.5684262 64.5532379 27.3912512 64.123599 27.3912512ZM69.386675 26.6116813 69.386675 27.4621212 69.4224782 27.4621212C69.6014944 27.1432063 69.8521171 26.8951613 70.2101494 26.7179863 70.5681818 26.5408113 70.9262142 26.4699413 71.3558531 26.4699413 72.0361146 26.4699413 72.6089664 26.6825513 73.002802 27.0723363 73.3966376 27.4621212 73.611457 27.9936461 73.611457 28.666911L73.611457 32.6356305 72.250934 32.6356305 72.250934 29.127566C72.250934 28.879521 72.2151308 28.6314761 72.1793275 28.4188661 72.1435243 28.2062561 72.0719178 28.0290811 71.9645081 27.8873412 71.8570984 27.7456012 71.7138854 27.6392962 71.5706725 27.5684262 71.3916563 27.4975562 71.1768369 27.4621212 70.9262142 27.4621212 70.747198 27.4621212 70.5681818 27.4975562 70.3533624 27.5684262 70.1743462 27.6392962 69.99533 27.7456012 69.8521171 27.8873412 69.7089041 28.0290811 69.6014944 28.2062561 69.4940847 28.4543011 69.386675 28.702346 69.3508717 28.985826 69.3508717 29.304741L69.3508717 32.6356305 67.9903487 32.6356305 67.9903487 26.6116813 69.386675 26.6116813ZM74.6139477 26.6116813 75.6522416 26.6116813 75.6522416 25.0525415 77.0127646 25.0525415 77.0127646 26.6116813 78.3732877 26.6116813 78.3732877 27.6038612 77.0127646 27.6038612 77.0127646 30.7575758C77.0127646 30.9701857 77.0127646 31.1473607 77.0485679 31.2536657 77.0485679 31.3954057 77.0843711 31.4662757 77.1559776 31.5371457 77.2275841 31.6080156 77.2991905 31.6434506 77.370797 31.6788856 77.4782067 31.7143206 77.5856164 31.7143206 77.7646326 31.7143206 77.8720423 31.7143206 77.9794521 31.7143206 78.0868618 31.7143206 78.1942715 31.7143206 78.265878 31.6788856 78.3732877 31.6788856L78.3732877 32.6356305C78.2300747 32.6356305 78.0868618 32.6710655 77.9078456 32.6710655 77.7288294 32.6710655 77.5498132 32.7065005 77.370797 32.7065005 77.0127646 32.7065005 76.7263387 32.6710655 76.5115193 32.6001955 76.2966999 32.5293255 76.1176837 32.4230205 76.010274 32.2458456 75.9028643 32.1041056 75.7954545 31.9269306 75.7596513 31.7143206 75.7238481 31.5017107 75.6880448 31.2536657 75.6880448 30.9701857L75.6880448 27.5684262 74.6497509 27.5684262 74.6497509 26.6116813 74.6139477 26.6116813Z"></path></g></g></svg>